<svg width="613" height="682" viewBox="0 0 613 682" fill="none" xmlns="http://www.w3.org/2000/svg">
<g clip-path="url(#clip0_207_120)">
<g clip-path="url(#clip1_207_120)">
<path opacity="0.05" d="M213.092 450.79C218.329 450.79 223.367 451.668 228.206 453.425C233.078 455.181 237.42 457.982 241.232 461.827C245.076 465.671 248.109 470.776 250.33 477.139C252.583 483.47 253.727 491.242 253.76 500.456C253.76 509.107 252.782 516.829 250.827 523.624C248.904 530.385 246.137 536.135 242.524 540.875C238.911 545.615 234.553 549.227 229.449 551.713C224.345 554.166 218.644 555.392 212.347 555.392C205.552 555.392 199.553 554.083 194.349 551.464C189.146 548.813 184.953 545.217 181.771 540.676C178.623 536.102 176.717 530.965 176.054 525.264H197.283C198.111 528.976 199.851 531.86 202.503 533.915C205.154 535.937 208.436 536.947 212.347 536.947C218.975 536.947 224.013 534.064 227.46 528.297C230.907 522.497 232.647 514.559 232.68 504.483H231.984C230.46 507.466 228.405 510.035 225.82 512.189C223.234 514.31 220.268 515.951 216.92 517.111C213.606 518.271 210.076 518.851 206.331 518.851C200.332 518.851 194.979 517.442 190.273 514.625C185.566 511.808 181.854 507.93 179.136 502.991C176.419 498.053 175.06 492.419 175.06 486.088C175.027 479.26 176.601 473.179 179.783 467.842C182.964 462.506 187.406 458.33 193.107 455.314C198.84 452.265 205.502 450.757 213.092 450.79ZM213.241 467.693C209.894 467.693 206.911 468.489 204.293 470.08C201.707 471.67 199.652 473.808 198.128 476.493C196.636 479.178 195.907 482.177 195.94 485.491C195.94 488.839 196.67 491.855 198.128 494.54C199.619 497.191 201.641 499.312 204.193 500.903C206.778 502.461 209.728 503.24 213.043 503.24C215.528 503.24 217.832 502.776 219.953 501.848C222.074 500.92 223.914 499.644 225.472 498.02C227.063 496.363 228.305 494.457 229.2 492.303C230.095 490.148 230.543 487.861 230.543 485.442C230.509 482.227 229.747 479.277 228.256 476.592C226.764 473.908 224.709 471.753 222.091 470.129C219.473 468.505 216.523 467.693 213.241 467.693Z" fill="black"/>
<path opacity="0.05" d="M2.87642 450.33V443.064L21.0938 414.364H27.358V424.42H23.6506L12.1662 442.595V442.936H38.054V450.33H2.87642ZM23.821 458V448.114L23.9915 444.896V414.364H32.642V458H23.821Z" fill="black"/>
<path opacity="0.05" d="M457.263 213L475.352 177.205V176.906H454.28V169.364H484.898V177.013L466.787 213H457.263Z" fill="black"/>
<path opacity="0.05" d="M232.358 92V87.5682L242.713 77.9801C243.594 77.1278 244.332 76.3608 244.929 75.679C245.535 74.9972 245.994 74.3295 246.307 73.6761C246.619 73.0133 246.776 72.2983 246.776 71.5312C246.776 70.679 246.581 69.9451 246.193 69.3295C245.805 68.7045 245.275 68.2263 244.602 67.8949C243.93 67.554 243.168 67.3835 242.315 67.3835C241.425 67.3835 240.649 67.5634 239.986 67.9233C239.323 68.2831 238.812 68.7992 238.452 69.4716C238.092 70.1439 237.912 70.9441 237.912 71.8722H232.074C232.074 69.9687 232.505 68.3163 233.366 66.9148C234.228 65.5133 235.436 64.429 236.989 63.6619C238.542 62.8949 240.331 62.5114 242.358 62.5114C244.441 62.5114 246.255 62.8807 247.798 63.6193C249.351 64.3485 250.559 65.3617 251.42 66.6591C252.282 67.9564 252.713 69.4432 252.713 71.1193C252.713 72.2178 252.495 73.3021 252.06 74.3722C251.634 75.4422 250.871 76.6307 249.773 77.9375C248.674 79.2348 247.126 80.7926 245.128 82.6108L240.881 86.7727V86.9716H253.097V92H232.358Z" fill="black"/>
<path opacity="0.05" d="M101.111 536.398C98.9896 536.398 97.1004 536.033 95.4432 535.304C93.7955 534.565 92.4934 533.552 91.5369 532.264C90.59 530.967 90.1023 529.471 90.0739 527.776H96.267C96.3049 528.486 96.5369 529.111 96.9631 529.651C97.3987 530.181 97.9763 530.593 98.696 530.886C99.4157 531.18 100.225 531.327 101.125 531.327C102.062 531.327 102.891 531.161 103.611 530.83C104.33 530.498 104.894 530.039 105.301 529.452C105.708 528.865 105.912 528.187 105.912 527.42C105.912 526.644 105.694 525.957 105.259 525.361C104.832 524.755 104.217 524.281 103.412 523.94C102.616 523.599 101.67 523.429 100.571 523.429H97.858V518.912H100.571C101.499 518.912 102.318 518.751 103.028 518.429C103.748 518.107 104.307 517.662 104.705 517.094C105.102 516.516 105.301 515.844 105.301 515.077C105.301 514.348 105.126 513.708 104.776 513.159C104.435 512.6 103.952 512.165 103.327 511.852C102.711 511.54 101.991 511.384 101.168 511.384C100.334 511.384 99.572 511.535 98.8807 511.838C98.1894 512.132 97.6354 512.553 97.2188 513.102C96.8021 513.652 96.5795 514.295 96.5511 515.034H90.6562C90.6847 513.358 91.1629 511.881 92.0909 510.602C93.0189 509.324 94.2689 508.325 95.8409 507.605C97.4223 506.876 99.2074 506.511 101.196 506.511C103.204 506.511 104.96 506.876 106.466 507.605C107.972 508.334 109.141 509.319 109.974 510.56C110.817 511.791 111.234 513.173 111.224 514.707C111.234 516.336 110.727 517.695 109.705 518.784C108.691 519.873 107.37 520.564 105.741 520.858V521.085C107.882 521.36 109.51 522.103 110.628 523.315C111.755 524.518 112.313 526.024 112.304 527.832C112.313 529.49 111.835 530.962 110.869 532.25C109.913 533.538 108.592 534.551 106.906 535.29C105.221 536.028 103.289 536.398 101.111 536.398Z" fill="black"/>
<path opacity="0.05" d="M373.55 33.1818V135H352.023V53.6151H351.426L328.109 68.2315V49.1406L353.315 33.1818H373.55Z" fill="black"/>
</g>
<path d="M25.2066 664.186C25.2066 664.38 156.684 664.536 318.833 664.536C481.036 664.536 612.485 664.379 612.485 664.186C612.485 663.993 481.036 663.836 318.833 663.836C156.684 663.836 25.2066 663.993 25.2066 664.186Z" fill="#263238"/>
<path d="M433.38 109.583H53.4087V489.554H433.38V109.583Z" fill="white"/>
<path d="M264.686 276.201H222.659V318.521H264.686V276.201Z" fill="#2196F3" fill-opacity="0.8"/>
<path opacity="0.4" d="M265 110H223V234H265V110Z" fill="#2196F3" fill-opacity="0.8"/>
<path opacity="0.4" d="M265 363H223V488H265V363Z" fill="#2196F3" fill-opacity="0.8"/>
<path opacity="0.4" d="M430 318V276L310 276V318H430Z" fill="#2196F3" fill-opacity="0.8"/>
<path opacity="0.4" d="M180 318V276L56 276L56 318H180Z" fill="#2196F3" fill-opacity="0.8"/>
<path opacity="0.4" d="M304 358L304 236L184 236L184 358H304Z" fill="#2196F3" fill-opacity="0.8"/>
<path d="M76.5464 139.714C75.5676 139.714 74.6862 139.519 73.9021 139.13C73.1179 138.74 72.4895 138.206 72.0168 137.528C71.5441 136.85 71.2855 136.077 71.241 135.209H73.2431C73.3209 135.982 73.6713 136.622 74.2941 137.128C74.9225 137.628 75.6733 137.878 76.5464 137.878C77.2471 137.878 77.87 137.714 78.415 137.386C78.9655 137.058 79.3965 136.608 79.7079 136.035C80.0249 135.456 80.1834 134.803 80.1834 134.075C80.1834 133.329 80.0194 132.665 79.6912 132.081C79.3687 131.491 78.9238 131.027 78.3566 130.688C77.7893 130.349 77.1414 130.176 76.4129 130.171C75.8902 130.165 75.3535 130.246 74.803 130.412C74.2524 130.574 73.7992 130.782 73.4433 131.038L71.508 130.805L72.5423 122.396H81.418V124.231H74.2774L73.6768 129.27H73.7769C74.1273 128.992 74.5666 128.761 75.0949 128.577C75.6232 128.394 76.1738 128.302 76.7466 128.302C77.7921 128.302 78.7236 128.552 79.5411 129.053C80.3642 129.548 81.0092 130.226 81.4764 131.088C81.9491 131.95 82.1854 132.934 82.1854 134.041C82.1854 135.131 81.9407 136.104 81.4514 136.961C80.9675 137.812 80.3002 138.485 79.4493 138.979C78.5985 139.469 77.6308 139.714 76.5464 139.714Z" fill="#263238"/>
<path d="M282.546 264.32C281.568 264.32 280.686 264.125 279.902 263.736C279.118 263.347 278.49 262.813 278.017 262.134C277.544 261.456 277.286 260.683 277.241 259.815H279.243C279.321 260.588 279.671 261.228 280.294 261.734C280.923 262.235 281.673 262.485 282.546 262.485C283.247 262.485 283.87 262.321 284.415 261.993C284.966 261.665 285.397 261.214 285.708 260.641C286.025 260.063 286.183 259.409 286.183 258.681C286.183 257.936 286.019 257.271 285.691 256.687C285.369 256.098 284.924 255.633 284.357 255.294C283.789 254.955 283.141 254.783 282.413 254.777C281.89 254.771 281.354 254.852 280.803 255.019C280.252 255.18 279.799 255.389 279.443 255.645L277.508 255.411L278.542 247.002H287.418V248.838H280.277L279.677 253.876H279.777C280.127 253.598 280.567 253.367 281.095 253.184C281.623 253 282.174 252.908 282.747 252.908C283.792 252.908 284.724 253.159 285.541 253.659C286.364 254.154 287.009 254.833 287.476 255.695C287.949 256.557 288.185 257.541 288.185 258.648C288.185 259.738 287.941 260.711 287.451 261.567C286.968 262.418 286.3 263.091 285.449 263.586C284.598 264.075 283.631 264.32 282.546 264.32Z" fill="#263238"/>
<path d="M408.546 431.005C407.568 431.005 406.686 430.81 405.902 430.421C405.118 430.031 404.49 429.497 404.017 428.819C403.544 428.141 403.286 427.368 403.241 426.5H405.243C405.321 427.273 405.671 427.913 406.294 428.419C406.923 428.919 407.673 429.169 408.546 429.169C409.247 429.169 409.87 429.005 410.415 428.677C410.966 428.349 411.397 427.899 411.708 427.326C412.025 426.747 412.183 426.094 412.183 425.366C412.183 424.62 412.019 423.956 411.691 423.372C411.369 422.782 410.924 422.318 410.357 421.979C409.789 421.64 409.141 421.467 408.413 421.462C407.89 421.456 407.354 421.537 406.803 421.703C406.252 421.865 405.799 422.073 405.443 422.329L403.508 422.096L404.542 413.687H413.418V415.522H406.277L405.677 420.561H405.777C406.127 420.283 406.567 420.052 407.095 419.868C407.623 419.685 408.174 419.593 408.747 419.593C409.792 419.593 410.724 419.843 411.541 420.344C412.364 420.839 413.009 421.517 413.476 422.379C413.949 423.241 414.185 424.225 414.185 425.332C414.185 426.422 413.941 427.395 413.451 428.252C412.968 429.103 412.3 429.776 411.449 430.27C410.598 430.76 409.631 431.005 408.546 431.005Z" fill="#263238"/>
<path d="M112.807 135.976V134.275L120.315 122.396H121.549V125.032H120.715L115.043 134.008V134.141H125.153V135.976H112.807ZM120.849 139.48V135.459V134.667V122.396H122.817V139.48H120.849Z" fill="#263238"/>
<path d="M70.8073 428.018V426.316L78.3149 414.438H79.5494V417.074H78.7153L73.0429 426.049V426.183H83.1531V428.018H70.8073ZM78.8487 431.521V427.501V426.708V414.438H80.8174V431.521H78.8487Z" fill="#263238"/>
<path d="M402.807 302.564V300.862L410.315 288.983H411.549V291.619H410.715L405.043 300.595V300.729H415.153V302.564H402.807ZM410.849 306.067V302.047V301.254V288.983H412.817V306.067H410.849Z" fill="#263238"/>
<path d="M198.807 260.583V258.881L206.315 247.002H207.549V249.638H206.715L201.043 258.614V258.748H211.153V260.583H198.807ZM206.849 264.086V260.066V259.273V247.002H208.817V264.086H206.849Z" fill="#263238"/>
<path d="M322.807 473.413V471.712L330.315 459.833H331.549V462.469H330.715L325.043 471.445V471.578H335.153V473.413H322.807ZM330.849 476.917V472.896V472.104V459.833H332.817V476.917H330.849Z" fill="#263238"/>
<path d="M152.807 345.44V343.738L160.315 331.859H161.549V334.495H160.715L155.043 343.471V343.605H165.153V345.44H152.807ZM160.849 348.943V344.923V344.13V331.859H162.817V348.943H160.849Z" fill="#263238"/>
<path d="M119.214 160.899V177.983H117.145V163.068H117.045L112.874 165.837V163.735L117.145 160.899H119.214Z" fill="#263238"/>
<path d="M373.214 201.826V218.91H371.145V203.995H371.045L366.874 206.764V204.662L371.145 201.826H373.214Z" fill="#263238"/>
<path d="M159.214 290.257V307.341H157.145V292.426H157.045L152.874 295.195V293.093L157.145 290.257H159.214Z" fill="#263238"/>
<path d="M329.214 372.222V389.306H327.145V374.391H327.045L322.874 377.161V375.058L327.145 372.222H329.214Z" fill="#263238"/>
<path d="M158.647 159.45C159.347 159.455 160.048 159.589 160.749 159.85C161.449 160.111 162.089 160.545 162.667 161.151C163.246 161.752 163.71 162.572 164.06 163.612C164.411 164.652 164.586 165.956 164.586 167.524C164.586 169.043 164.441 170.391 164.152 171.57C163.868 172.744 163.457 173.733 162.917 174.54C162.384 175.346 161.733 175.958 160.966 176.375C160.204 176.792 159.342 177.001 158.38 177.001C157.423 177.001 156.569 176.812 155.819 176.433C155.073 176.05 154.462 175.519 153.983 174.84C153.511 174.156 153.208 173.364 153.074 172.463H155.11C155.293 173.247 155.657 173.895 156.202 174.406C156.753 174.912 157.479 175.165 158.38 175.165C159.698 175.165 160.738 174.59 161.499 173.439C162.267 172.288 162.651 170.661 162.651 168.559H162.517C162.206 169.026 161.836 169.429 161.408 169.768C160.979 170.108 160.504 170.369 159.981 170.552C159.458 170.736 158.902 170.828 158.313 170.828C157.334 170.828 156.436 170.586 155.618 170.102C154.807 169.613 154.156 168.943 153.666 168.092C153.183 167.235 152.941 166.256 152.941 165.155C152.941 164.11 153.174 163.153 153.641 162.286C154.114 161.413 154.776 160.718 155.627 160.2C156.483 159.683 157.49 159.433 158.647 159.45ZM158.647 161.285C157.946 161.285 157.315 161.46 156.753 161.81C156.197 162.155 155.755 162.622 155.427 163.212C155.104 163.796 154.943 164.444 154.943 165.155C154.943 165.867 155.098 166.515 155.41 167.099C155.727 167.677 156.158 168.139 156.703 168.484C157.253 168.823 157.879 168.993 158.58 168.993C159.108 168.993 159.6 168.89 160.056 168.684C160.512 168.473 160.91 168.186 161.249 167.825C161.594 167.458 161.864 167.043 162.058 166.582C162.253 166.115 162.35 165.628 162.35 165.122C162.35 164.455 162.189 163.829 161.866 163.245C161.549 162.661 161.11 162.188 160.548 161.827C159.992 161.465 159.358 161.285 158.647 161.285Z" fill="#263238"/>
<path d="M282.647 414.297C283.347 414.303 284.048 414.436 284.749 414.698C285.449 414.959 286.089 415.393 286.667 415.999C287.246 416.6 287.71 417.42 288.06 418.46C288.411 419.5 288.586 420.804 288.586 422.372C288.586 423.89 288.441 425.239 288.152 426.418C287.868 427.591 287.457 428.581 286.917 429.387C286.384 430.194 285.733 430.806 284.966 431.223C284.204 431.64 283.342 431.848 282.38 431.848C281.423 431.848 280.569 431.659 279.819 431.281C279.073 430.897 278.462 430.366 277.983 429.688C277.511 429.004 277.208 428.211 277.074 427.31H279.11C279.293 428.095 279.657 428.742 280.202 429.254C280.753 429.76 281.479 430.013 282.38 430.013C283.698 430.013 284.738 429.438 285.499 428.286C286.267 427.135 286.651 425.509 286.651 423.406H286.517C286.206 423.874 285.836 424.277 285.408 424.616C284.979 424.955 284.504 425.217 283.981 425.4C283.458 425.584 282.902 425.675 282.313 425.675C281.334 425.675 280.436 425.433 279.618 424.95C278.807 424.46 278.156 423.79 277.666 422.939C277.183 422.083 276.941 421.104 276.941 420.003C276.941 418.957 277.174 418.001 277.641 417.133C278.114 416.26 278.776 415.565 279.627 415.048C280.483 414.531 281.49 414.281 282.647 414.297ZM282.647 416.132C281.946 416.132 281.315 416.308 280.753 416.658C280.197 417.003 279.755 417.47 279.427 418.059C279.104 418.643 278.943 419.291 278.943 420.003C278.943 420.715 279.098 421.363 279.41 421.947C279.727 422.525 280.158 422.987 280.703 423.331C281.253 423.671 281.879 423.84 282.58 423.84C283.108 423.84 283.6 423.737 284.056 423.532C284.512 423.32 284.91 423.034 285.249 422.672C285.594 422.305 285.864 421.891 286.058 421.429C286.253 420.962 286.35 420.476 286.35 419.97C286.35 419.302 286.189 418.677 285.866 418.093C285.549 417.509 285.11 417.036 284.548 416.675C283.992 416.313 283.358 416.132 282.647 416.132Z" fill="#263238"/>
<path d="M118.647 459.756C119.347 459.762 120.048 459.895 120.749 460.157C121.449 460.418 122.089 460.852 122.667 461.458C123.246 462.059 123.71 462.879 124.06 463.919C124.411 464.959 124.586 466.263 124.586 467.831C124.586 469.349 124.441 470.698 124.152 471.877C123.868 473.05 123.457 474.04 122.917 474.846C122.384 475.653 121.733 476.265 120.966 476.682C120.204 477.099 119.342 477.307 118.38 477.307C117.423 477.307 116.569 477.118 115.819 476.74C115.073 476.356 114.462 475.825 113.983 475.147C113.511 474.463 113.208 473.67 113.074 472.769H115.11C115.293 473.554 115.657 474.201 116.202 474.713C116.753 475.219 117.479 475.472 118.38 475.472C119.698 475.472 120.738 474.897 121.499 473.745C122.267 472.594 122.651 470.968 122.651 468.865H122.517C122.206 469.333 121.836 469.736 121.408 470.075C120.979 470.414 120.504 470.676 119.981 470.859C119.458 471.043 118.902 471.134 118.313 471.134C117.334 471.134 116.436 470.892 115.618 470.409C114.807 469.919 114.156 469.249 113.666 468.398C113.183 467.542 112.941 466.563 112.941 465.462C112.941 464.416 113.174 463.46 113.641 462.592C114.114 461.719 114.776 461.024 115.627 460.507C116.483 459.99 117.49 459.74 118.647 459.756ZM118.647 461.591C117.946 461.591 117.315 461.767 116.753 462.117C116.197 462.462 115.755 462.929 115.427 463.518C115.104 464.102 114.943 464.75 114.943 465.462C114.943 466.174 115.098 466.822 115.41 467.406C115.727 467.984 116.158 468.446 116.703 468.79C117.253 469.13 117.879 469.299 118.58 469.299C119.108 469.299 119.6 469.196 120.056 468.991C120.512 468.779 120.91 468.493 121.249 468.131C121.594 467.764 121.864 467.35 122.058 466.888C122.253 466.421 122.35 465.935 122.35 465.429C122.35 464.761 122.189 464.136 121.866 463.552C121.549 462.968 121.11 462.495 120.548 462.134C119.992 461.772 119.358 461.591 118.647 461.591Z" fill="#263238"/>
<path d="M372.647 372.282C373.347 372.288 374.048 372.421 374.749 372.682C375.449 372.944 376.089 373.378 376.667 373.984C377.246 374.584 377.71 375.405 378.06 376.445C378.411 377.485 378.586 378.789 378.586 380.357C378.586 381.875 378.441 383.224 378.152 384.403C377.868 385.576 377.457 386.566 376.917 387.372C376.384 388.179 375.733 388.79 374.966 389.208C374.204 389.625 373.342 389.833 372.38 389.833C371.423 389.833 370.569 389.644 369.819 389.266C369.073 388.882 368.462 388.351 367.983 387.673C367.511 386.989 367.208 386.196 367.074 385.295H369.11C369.293 386.079 369.657 386.727 370.202 387.239C370.753 387.745 371.479 387.998 372.38 387.998C373.698 387.998 374.738 387.422 375.499 386.271C376.267 385.12 376.651 383.493 376.651 381.391H376.517C376.206 381.858 375.836 382.262 375.408 382.601C374.979 382.94 374.504 383.201 373.981 383.385C373.458 383.569 372.902 383.66 372.313 383.66C371.334 383.66 370.436 383.418 369.618 382.935C368.807 382.445 368.156 381.775 367.666 380.924C367.183 380.068 366.941 379.089 366.941 377.988C366.941 376.942 367.174 375.986 367.641 375.118C368.114 374.245 368.776 373.55 369.627 373.033C370.483 372.516 371.49 372.265 372.647 372.282ZM372.647 374.117C371.946 374.117 371.315 374.292 370.753 374.643C370.197 374.988 369.755 375.455 369.427 376.044C369.104 376.628 368.943 377.276 368.943 377.988C368.943 378.7 369.098 379.348 369.41 379.931C369.727 380.51 370.158 380.971 370.703 381.316C371.253 381.655 371.879 381.825 372.58 381.825C373.108 381.825 373.6 381.722 374.056 381.516C374.512 381.305 374.91 381.019 375.249 380.657C375.594 380.29 375.864 379.876 376.058 379.414C376.253 378.947 376.35 378.461 376.35 377.954C376.35 377.287 376.189 376.662 375.866 376.078C375.549 375.494 375.11 375.021 374.548 374.659C373.992 374.298 373.358 374.117 372.647 374.117Z" fill="#263238"/>
<path d="M76.6465 246.987C77.3472 246.992 78.0479 247.126 78.7486 247.387C79.4493 247.648 80.0889 248.082 80.6672 248.688C81.2456 249.289 81.71 250.109 82.0603 251.149C82.4107 252.189 82.5858 253.493 82.5858 255.062C82.5858 256.58 82.4413 257.928 82.1521 259.107C81.8685 260.281 81.4569 261.271 80.9175 262.077C80.3836 262.883 79.733 263.495 78.9655 263.912C78.2036 264.329 77.3416 264.538 76.3796 264.538C75.423 264.538 74.5694 264.349 73.8186 263.971C73.0734 263.587 72.4617 263.056 71.9835 262.377C71.5107 261.693 71.2077 260.901 71.0742 260H73.1096C73.2931 260.784 73.6574 261.432 74.2024 261.943C74.7529 262.45 75.4787 262.703 76.3796 262.703C77.6976 262.703 78.7375 262.127 79.4994 260.976C80.2668 259.825 80.6506 258.198 80.6506 256.096H80.5171C80.2057 256.563 79.8358 256.966 79.4076 257.305C78.9794 257.645 78.5039 257.906 77.9812 258.09C77.4584 258.273 76.9023 258.365 76.3128 258.365C75.3341 258.365 74.4359 258.123 73.6184 257.639C72.8065 257.15 72.1558 256.48 71.6665 255.629C71.1826 254.772 70.9407 253.794 70.9407 252.692C70.9407 251.647 71.1743 250.69 71.6414 249.823C72.1141 248.95 72.7759 248.255 73.6268 247.737C74.4832 247.22 75.4898 246.97 76.6465 246.987ZM76.6465 248.822C75.9458 248.822 75.3146 248.997 74.7529 249.347C74.1968 249.692 73.7547 250.159 73.4266 250.749C73.104 251.333 72.9428 251.981 72.9428 252.692C72.9428 253.404 73.0985 254.052 73.4099 254.636C73.7269 255.214 74.1579 255.676 74.7029 256.021C75.2534 256.36 75.8791 256.53 76.5798 256.53C77.1081 256.53 77.6002 256.427 78.0563 256.221C78.5123 256.01 78.9099 255.723 79.2491 255.362C79.5939 254.995 79.8636 254.58 80.0583 254.119C80.2529 253.652 80.3502 253.165 80.3502 252.659C80.3502 251.992 80.189 251.366 79.8664 250.782C79.5494 250.198 79.1101 249.726 78.5484 249.364C77.9923 249.003 77.3583 248.822 76.6465 248.822Z" fill="#263238"/>
<path d="M204.98 219.835C203.879 219.835 202.898 219.646 202.036 219.267C201.179 218.889 200.498 218.364 199.992 217.691C199.491 217.012 199.219 216.225 199.174 215.33H201.276C201.321 215.881 201.51 216.356 201.844 216.757C202.177 217.151 202.614 217.457 203.153 217.674C203.693 217.891 204.291 217.999 204.947 217.999C205.681 217.999 206.332 217.872 206.899 217.616C207.466 217.36 207.911 217.004 208.233 216.548C208.556 216.092 208.717 215.564 208.717 214.963C208.717 214.335 208.562 213.781 208.25 213.303C207.939 212.819 207.483 212.441 206.882 212.169C206.281 211.896 205.547 211.76 204.68 211.76H203.312V209.925H204.68C205.358 209.925 205.953 209.802 206.465 209.558C206.982 209.313 207.385 208.968 207.675 208.523C207.969 208.078 208.117 207.556 208.117 206.955C208.117 206.377 207.989 205.873 207.733 205.445C207.477 205.017 207.116 204.683 206.649 204.444C206.187 204.205 205.642 204.085 205.014 204.085C204.424 204.085 203.868 204.194 203.345 204.411C202.828 204.622 202.405 204.931 202.077 205.337C201.749 205.737 201.571 206.221 201.543 206.788H199.541C199.575 205.893 199.844 205.109 200.35 204.436C200.857 203.757 201.518 203.229 202.336 202.851C203.159 202.473 204.063 202.284 205.047 202.284C206.104 202.284 207.01 202.498 207.766 202.926C208.523 203.349 209.104 203.907 209.51 204.603C209.916 205.298 210.119 206.048 210.119 206.855C210.119 207.817 209.866 208.637 209.36 209.316C208.859 209.994 208.178 210.464 207.316 210.725V210.859C208.395 211.037 209.237 211.496 209.843 212.235C210.45 212.969 210.753 213.879 210.753 214.963C210.753 215.892 210.5 216.726 209.994 217.466C209.493 218.2 208.809 218.778 207.942 219.201C207.074 219.623 206.087 219.835 204.98 219.835Z" fill="#263238"/>
<path d="M277.742 176.864L285.383 161.749V161.615H276.574V159.78H287.518V161.716L279.91 176.864H277.742Z" fill="#263238"/>
<path d="M236.742 476.483L244.383 461.368V461.235H235.574V459.399H246.518V461.335L238.91 476.483H236.742Z" fill="#263238"/>
<path d="M236.208 139.48V137.978L241.847 131.806C242.508 131.083 243.053 130.454 243.482 129.92C243.91 129.381 244.227 128.875 244.433 128.402C244.644 127.924 244.75 127.423 244.75 126.901C244.75 126.3 244.605 125.78 244.316 125.341C244.032 124.901 243.643 124.562 243.148 124.323C242.653 124.084 242.097 123.964 241.48 123.964C240.823 123.964 240.251 124.101 239.761 124.373C239.277 124.64 238.902 125.015 238.635 125.499C238.374 125.983 238.243 126.55 238.243 127.201H236.274C236.274 126.2 236.505 125.321 236.967 124.565C237.428 123.809 238.057 123.219 238.852 122.796C239.653 122.374 240.551 122.162 241.546 122.162C242.547 122.162 243.434 122.374 244.207 122.796C244.98 123.219 245.587 123.789 246.026 124.506C246.465 125.224 246.685 126.022 246.685 126.901C246.685 127.529 246.571 128.144 246.343 128.744C246.12 129.339 245.731 130.004 245.175 130.738C244.625 131.466 243.86 132.356 242.881 133.407L239.044 137.511V137.645H246.985V139.48H236.208Z" fill="#263238"/>
<path d="M153.208 431.521V430.02L158.847 423.847C159.508 423.124 160.053 422.496 160.482 421.962C160.91 421.422 161.227 420.916 161.433 420.444C161.644 419.965 161.75 419.465 161.75 418.942C161.75 418.341 161.605 417.822 161.316 417.382C161.032 416.943 160.643 416.604 160.148 416.364C159.653 416.125 159.097 416.006 158.48 416.006C157.823 416.006 157.251 416.142 156.761 416.415C156.277 416.681 155.902 417.057 155.635 417.541C155.374 418.024 155.243 418.592 155.243 419.242H153.274C153.274 418.241 153.505 417.363 153.967 416.606C154.428 415.85 155.057 415.261 155.852 414.838C156.653 414.415 157.551 414.204 158.546 414.204C159.547 414.204 160.434 414.415 161.207 414.838C161.98 415.261 162.587 415.831 163.026 416.548C163.465 417.265 163.685 418.063 163.685 418.942C163.685 419.571 163.571 420.185 163.343 420.786C163.12 421.381 162.731 422.045 162.175 422.779C161.625 423.508 160.86 424.398 159.881 425.449L156.044 429.553V429.686H163.985V431.521H153.208Z" fill="#263238"/>
<path d="M323.208 218.248V216.746L328.847 210.573C329.508 209.85 330.053 209.222 330.482 208.688C330.91 208.148 331.227 207.642 331.433 207.17C331.644 206.691 331.75 206.191 331.75 205.668C331.75 205.068 331.605 204.548 331.316 204.108C331.032 203.669 330.643 203.33 330.148 203.091C329.653 202.851 329.097 202.732 328.48 202.732C327.823 202.732 327.251 202.868 326.761 203.141C326.277 203.408 325.902 203.783 325.635 204.267C325.374 204.751 325.243 205.318 325.243 205.968H323.274C323.274 204.967 323.505 204.089 323.967 203.332C324.428 202.576 325.057 201.987 325.852 201.564C326.653 201.141 327.551 200.93 328.546 200.93C329.547 200.93 330.434 201.141 331.207 201.564C331.98 201.987 332.587 202.557 333.026 203.274C333.465 203.991 333.685 204.789 333.685 205.668C333.685 206.297 333.571 206.911 333.343 207.512C333.12 208.107 332.731 208.771 332.175 209.505C331.625 210.234 330.86 211.124 329.881 212.175L326.044 216.279V216.412H333.985V218.248H323.208Z" fill="#263238"/>
<path d="M277.208 346.425V344.923L282.847 338.75C283.508 338.027 284.053 337.399 284.482 336.865C284.91 336.326 285.227 335.82 285.433 335.347C285.644 334.869 285.75 334.368 285.75 333.845C285.75 333.245 285.605 332.725 285.316 332.285C285.032 331.846 284.643 331.507 284.148 331.268C283.653 331.029 283.097 330.909 282.48 330.909C281.823 330.909 281.251 331.045 280.761 331.318C280.277 331.585 279.902 331.96 279.635 332.444C279.374 332.928 279.243 333.495 279.243 334.146H277.274C277.274 333.145 277.505 332.266 277.967 331.51C278.428 330.753 279.057 330.164 279.852 329.741C280.653 329.319 281.551 329.107 282.546 329.107C283.547 329.107 284.434 329.319 285.207 329.741C285.98 330.164 286.587 330.734 287.026 331.451C287.465 332.169 287.685 332.967 287.685 333.845C287.685 334.474 287.571 335.088 287.343 335.689C287.12 336.284 286.731 336.949 286.175 337.683C285.625 338.411 284.86 339.301 283.881 340.352L280.044 344.456V344.59H287.985V346.425H277.208Z" fill="#263238"/>
<path d="M367.208 264.249V262.748L372.847 256.575C373.508 255.852 374.053 255.223 374.482 254.689C374.91 254.15 375.227 253.644 375.433 253.171C375.644 252.693 375.75 252.192 375.75 251.67C375.75 251.069 375.605 250.549 375.316 250.11C375.032 249.67 374.643 249.331 374.148 249.092C373.653 248.853 373.097 248.733 372.48 248.733C371.823 248.733 371.251 248.87 370.761 249.142C370.277 249.409 369.902 249.784 369.635 250.268C369.374 250.752 369.243 251.319 369.243 251.97H367.274C367.274 250.969 367.505 250.09 367.967 249.334C368.428 248.578 369.057 247.988 369.852 247.565C370.653 247.143 371.551 246.932 372.546 246.932C373.547 246.932 374.434 247.143 375.207 247.565C375.98 247.988 376.587 248.558 377.026 249.276C377.465 249.993 377.685 250.791 377.685 251.67C377.685 252.298 377.571 252.913 377.343 253.513C377.12 254.108 376.731 254.773 376.175 255.507C375.625 256.235 374.86 257.125 373.881 258.176L370.044 262.28V262.414H377.985V264.249H367.208Z" fill="#263238"/>
<path d="M328.68 139.267C327.534 139.267 326.522 139.064 325.643 138.658C324.77 138.246 324.089 137.682 323.6 136.964C323.11 136.241 322.868 135.418 322.874 134.495C322.868 133.772 323.01 133.105 323.299 132.493C323.589 131.876 323.983 131.362 324.484 130.95C324.99 130.533 325.554 130.269 326.177 130.158V130.057C325.36 129.846 324.709 129.387 324.225 128.681C323.742 127.969 323.502 127.16 323.508 126.254C323.502 125.386 323.722 124.61 324.167 123.926C324.612 123.242 325.224 122.703 326.002 122.308C326.786 121.913 327.679 121.716 328.68 121.716C329.67 121.716 330.554 121.913 331.333 122.308C332.111 122.703 332.723 123.242 333.168 123.926C333.618 124.61 333.846 125.386 333.852 126.254C333.846 127.16 333.599 127.969 333.109 128.681C332.626 129.387 331.983 129.846 331.182 130.057V130.158C331.8 130.269 332.356 130.533 332.851 130.95C333.346 131.362 333.741 131.876 334.035 132.493C334.33 133.105 334.48 133.772 334.486 134.495C334.48 135.418 334.23 136.241 333.735 136.964C333.246 137.682 332.564 138.246 331.691 138.658C330.824 139.064 329.82 139.267 328.68 139.267ZM328.68 137.432C329.453 137.432 330.12 137.306 330.682 137.056C331.244 136.806 331.677 136.453 331.983 135.997C332.289 135.541 332.445 135.007 332.45 134.395C332.445 133.75 332.278 133.18 331.95 132.685C331.622 132.19 331.174 131.801 330.607 131.517C330.045 131.234 329.403 131.092 328.68 131.092C327.951 131.092 327.301 131.234 326.728 131.517C326.161 131.801 325.713 132.19 325.385 132.685C325.062 133.18 324.904 133.75 324.909 134.395C324.904 135.007 325.051 135.541 325.352 135.997C325.657 136.453 326.094 136.806 326.661 137.056C327.228 137.306 327.901 137.432 328.68 137.432ZM328.68 129.323C329.292 129.323 329.834 129.201 330.307 128.956C330.785 128.712 331.16 128.37 331.433 127.93C331.705 127.491 331.844 126.977 331.85 126.387C331.844 125.809 331.708 125.305 331.441 124.877C331.174 124.443 330.804 124.11 330.332 123.876C329.859 123.637 329.308 123.518 328.68 123.518C328.04 123.518 327.481 123.637 327.003 123.876C326.525 124.11 326.155 124.443 325.894 124.877C325.632 125.305 325.504 125.809 325.51 126.387C325.504 126.977 325.635 127.491 325.902 127.93C326.175 128.37 326.55 128.712 327.028 128.956C327.506 129.201 328.057 129.323 328.68 129.323Z" fill="#263238"/>
<path d="M372.68 347.835C371.534 347.835 370.522 347.632 369.643 347.226C368.77 346.815 368.089 346.25 367.6 345.533C367.11 344.81 366.868 343.987 366.874 343.064C366.868 342.341 367.01 341.673 367.299 341.062C367.589 340.444 367.983 339.93 368.484 339.518C368.99 339.101 369.554 338.837 370.177 338.726V338.626C369.36 338.414 368.709 337.956 368.225 337.249C367.742 336.538 367.502 335.728 367.508 334.822C367.502 333.954 367.722 333.179 368.167 332.495C368.612 331.811 369.224 331.271 370.002 330.876C370.786 330.481 371.679 330.284 372.68 330.284C373.67 330.284 374.554 330.481 375.333 330.876C376.111 331.271 376.723 331.811 377.168 332.495C377.618 333.179 377.846 333.954 377.852 334.822C377.846 335.728 377.599 336.538 377.109 337.249C376.626 337.956 375.983 338.414 375.182 338.626V338.726C375.8 338.837 376.356 339.101 376.851 339.518C377.346 339.93 377.741 340.444 378.035 341.062C378.33 341.673 378.48 342.341 378.486 343.064C378.48 343.987 378.23 344.81 377.735 345.533C377.246 346.25 376.564 346.815 375.691 347.226C374.824 347.632 373.82 347.835 372.68 347.835ZM372.68 346C373.453 346 374.12 345.875 374.682 345.625C375.244 345.374 375.677 345.021 375.983 344.565C376.289 344.109 376.445 343.575 376.45 342.964C376.445 342.318 376.278 341.748 375.95 341.253C375.622 340.759 375.174 340.369 374.607 340.086C374.045 339.802 373.403 339.66 372.68 339.66C371.951 339.66 371.301 339.802 370.728 340.086C370.161 340.369 369.713 340.759 369.385 341.253C369.062 341.748 368.904 342.318 368.909 342.964C368.904 343.575 369.051 344.109 369.352 344.565C369.657 345.021 370.094 345.374 370.661 345.625C371.228 345.875 371.901 346 372.68 346ZM372.68 337.892C373.292 337.892 373.834 337.769 374.307 337.525C374.785 337.28 375.16 336.938 375.433 336.499C375.705 336.059 375.844 335.545 375.85 334.955C375.844 334.377 375.708 333.874 375.441 333.446C375.174 333.012 374.804 332.678 374.332 332.445C373.859 332.205 373.308 332.086 372.68 332.086C372.04 332.086 371.481 332.205 371.003 332.445C370.525 332.678 370.155 333.012 369.894 333.446C369.632 333.874 369.504 334.377 369.51 334.955C369.504 335.545 369.635 336.059 369.902 336.499C370.175 336.938 370.55 337.28 371.028 337.525C371.506 337.769 372.057 337.892 372.68 337.892Z" fill="#263238"/>
<path d="M408.88 139.714C408.179 139.702 407.479 139.569 406.778 139.313C406.077 139.057 405.438 138.626 404.859 138.02C404.281 137.408 403.817 136.583 403.466 135.543C403.116 134.497 402.941 133.185 402.941 131.605C402.941 130.093 403.083 128.752 403.366 127.585C403.65 126.411 404.061 125.424 404.601 124.623C405.14 123.817 405.791 123.205 406.553 122.788C407.32 122.371 408.185 122.162 409.147 122.162C410.104 122.162 410.954 122.354 411.7 122.738C412.45 123.116 413.062 123.645 413.535 124.323C414.007 125.001 414.313 125.783 414.452 126.667H412.417C412.228 125.9 411.861 125.263 411.316 124.757C410.771 124.251 410.048 123.998 409.147 123.998C407.823 123.998 406.781 124.573 406.019 125.724C405.263 126.876 404.882 128.491 404.876 130.571H405.009C405.321 130.098 405.691 129.695 406.119 129.361C406.553 129.022 407.031 128.761 407.554 128.577C408.076 128.394 408.63 128.302 409.214 128.302C410.193 128.302 411.088 128.547 411.9 129.036C412.712 129.52 413.362 130.19 413.852 131.046C414.341 131.897 414.586 132.873 414.586 133.974C414.586 135.031 414.349 135.999 413.877 136.877C413.404 137.75 412.74 138.446 411.883 138.963C411.032 139.474 410.031 139.725 408.88 139.714ZM408.88 137.878C409.581 137.878 410.209 137.703 410.765 137.353C411.327 137.002 411.769 136.533 412.092 135.943C412.42 135.354 412.584 134.697 412.584 133.974C412.584 133.268 412.425 132.626 412.108 132.047C411.797 131.464 411.366 130.999 410.815 130.654C410.27 130.31 409.648 130.137 408.947 130.137C408.418 130.137 407.926 130.243 407.47 130.454C407.014 130.66 406.614 130.944 406.269 131.305C405.93 131.667 405.663 132.081 405.468 132.548C405.274 133.01 405.176 133.496 405.176 134.008C405.176 134.686 405.335 135.32 405.652 135.91C405.974 136.499 406.414 136.975 406.97 137.336C407.531 137.698 408.168 137.878 408.88 137.878Z" fill="#263238"/>
<path d="M328.88 305.854C328.179 305.843 327.479 305.71 326.778 305.454C326.077 305.198 325.438 304.767 324.859 304.161C324.281 303.549 323.817 302.723 323.466 301.683C323.116 300.638 322.941 299.325 322.941 297.746C322.941 296.233 323.083 294.893 323.366 293.725C323.65 292.552 324.061 291.565 324.601 290.764C325.14 289.958 325.791 289.346 326.553 288.929C327.32 288.512 328.185 288.303 329.147 288.303C330.104 288.303 330.954 288.495 331.7 288.879C332.45 289.257 333.062 289.785 333.535 290.464C334.007 291.142 334.313 291.923 334.452 292.808H332.417C332.228 292.04 331.861 291.403 331.316 290.897C330.771 290.391 330.048 290.138 329.147 290.138C327.823 290.138 326.781 290.714 326.019 291.865C325.263 293.016 324.882 294.632 324.876 296.712H325.009C325.321 296.239 325.691 295.836 326.119 295.502C326.553 295.163 327.031 294.901 327.554 294.718C328.076 294.534 328.63 294.443 329.214 294.443C330.193 294.443 331.088 294.687 331.9 295.177C332.712 295.661 333.362 296.331 333.852 297.187C334.341 298.038 334.586 299.014 334.586 300.115C334.586 301.172 334.349 302.139 333.877 303.018C333.404 303.891 332.74 304.586 331.883 305.103C331.032 305.615 330.031 305.865 328.88 305.854ZM328.88 304.019C329.581 304.019 330.209 303.844 330.765 303.493C331.327 303.143 331.769 302.673 332.092 302.084C332.42 301.494 332.584 300.838 332.584 300.115C332.584 299.409 332.425 298.766 332.108 298.188C331.797 297.604 331.366 297.14 330.815 296.795C330.27 296.45 329.648 296.278 328.947 296.278C328.418 296.278 327.926 296.383 327.47 296.595C327.014 296.801 326.614 297.084 326.269 297.446C325.93 297.807 325.663 298.221 325.468 298.689C325.274 299.15 325.176 299.637 325.176 300.148C325.176 300.827 325.335 301.461 325.652 302.05C325.974 302.64 326.414 303.115 326.97 303.477C327.531 303.838 328.168 304.019 328.88 304.019Z" fill="#263238"/>
<path d="M76.8801 348.282C76.1794 348.271 75.4787 348.137 74.7779 347.882C74.0772 347.626 73.4377 347.195 72.8593 346.589C72.281 345.977 71.8166 345.151 71.4663 344.111C71.1159 343.066 70.9407 341.753 70.9407 340.174C70.9407 338.661 71.0825 337.321 71.3662 336.153C71.6498 334.98 72.0613 333.992 72.6007 333.192C73.1402 332.385 73.7908 331.774 74.5527 331.356C75.3202 330.939 76.1849 330.731 77.147 330.731C78.1035 330.731 78.9544 330.923 79.6996 331.306C80.4504 331.685 81.0621 332.213 81.5348 332.891C82.0075 333.57 82.3133 334.351 82.4524 335.235H80.417C80.2279 334.468 79.8609 333.831 79.3159 333.325C78.7709 332.819 78.0479 332.566 77.147 332.566C75.8234 332.566 74.7807 333.142 74.0188 334.293C73.2625 335.444 72.8816 337.059 72.876 339.139H73.0095C73.3209 338.667 73.6907 338.263 74.1189 337.93C74.5527 337.591 75.031 337.329 75.5537 337.146C76.0765 336.962 76.6298 336.87 77.2137 336.87C78.1925 336.87 79.0879 337.115 79.8998 337.604C80.7117 338.088 81.3624 338.758 81.8518 339.615C82.3412 340.466 82.5858 341.442 82.5858 342.543C82.5858 343.599 82.3495 344.567 81.8768 345.446C81.4041 346.319 80.7395 347.014 79.8831 347.531C79.0322 348.043 78.0312 348.293 76.8801 348.282ZM76.8801 346.447C77.5808 346.447 78.2092 346.272 78.7653 345.921C79.327 345.571 79.7691 345.101 80.0917 344.511C80.4198 343.922 80.5838 343.266 80.5838 342.543C80.5838 341.836 80.4253 341.194 80.1083 340.616C79.7969 340.032 79.3659 339.568 78.8154 339.223C78.2704 338.878 77.6475 338.706 76.9468 338.706C76.4185 338.706 75.9263 338.811 75.4703 339.023C75.0143 339.228 74.6139 339.512 74.2691 339.873C73.9299 340.235 73.6629 340.649 73.4683 341.116C73.2736 341.578 73.1763 342.065 73.1763 342.576C73.1763 343.255 73.3348 343.889 73.6518 344.478C73.9744 345.068 74.4137 345.543 74.9698 345.905C75.5315 346.266 76.1682 346.447 76.8801 346.447Z" fill="#263238"/>
<path d="M118.88 388.922C118.179 388.911 117.479 388.777 116.778 388.522C116.077 388.266 115.438 387.835 114.859 387.229C114.281 386.617 113.817 385.791 113.466 384.751C113.116 383.706 112.941 382.393 112.941 380.814C112.941 379.301 113.083 377.961 113.366 376.793C113.65 375.62 114.061 374.633 114.601 373.832C115.14 373.025 115.791 372.414 116.553 371.997C117.32 371.579 118.185 371.371 119.147 371.371C120.104 371.371 120.954 371.563 121.7 371.947C122.45 372.325 123.062 372.853 123.535 373.531C124.007 374.21 124.313 374.991 124.452 375.876H122.417C122.228 375.108 121.861 374.471 121.316 373.965C120.771 373.459 120.048 373.206 119.147 373.206C117.823 373.206 116.781 373.782 116.019 374.933C115.263 376.084 114.882 377.7 114.876 379.779H115.009C115.321 379.307 115.691 378.904 116.119 378.57C116.553 378.231 117.031 377.969 117.554 377.786C118.076 377.602 118.63 377.51 119.214 377.51C120.193 377.51 121.088 377.755 121.9 378.245C122.712 378.728 123.362 379.399 123.852 380.255C124.341 381.106 124.586 382.082 124.586 383.183C124.586 384.24 124.349 385.207 123.877 386.086C123.404 386.959 122.74 387.654 121.883 388.171C121.032 388.683 120.031 388.933 118.88 388.922ZM118.88 387.087C119.581 387.087 120.209 386.912 120.765 386.561C121.327 386.211 121.769 385.741 122.092 385.152C122.42 384.562 122.584 383.906 122.584 383.183C122.584 382.477 122.425 381.834 122.108 381.256C121.797 380.672 121.366 380.208 120.815 379.863C120.27 379.518 119.648 379.346 118.947 379.346C118.418 379.346 117.926 379.451 117.47 379.663C117.014 379.868 116.614 380.152 116.269 380.514C115.93 380.875 115.663 381.289 115.468 381.756C115.274 382.218 115.176 382.705 115.176 383.216C115.176 383.895 115.335 384.529 115.652 385.118C115.974 385.708 116.414 386.183 116.97 386.545C117.531 386.906 118.168 387.087 118.88 387.087Z" fill="#263238"/>
<path d="M408.98 176.78C407.879 176.78 406.898 176.591 406.036 176.213C405.179 175.835 404.498 175.309 403.992 174.636C403.491 173.958 403.219 173.171 403.174 172.275H405.276C405.321 172.826 405.51 173.301 405.844 173.702C406.177 174.097 406.614 174.403 407.153 174.619C407.693 174.836 408.291 174.945 408.947 174.945C409.681 174.945 410.332 174.817 410.899 174.561C411.466 174.305 411.911 173.949 412.233 173.493C412.556 173.037 412.717 172.509 412.717 171.908C412.717 171.28 412.562 170.727 412.25 170.248C411.939 169.765 411.483 169.386 410.882 169.114C410.281 168.841 409.547 168.705 408.68 168.705H407.312V166.87H408.68C409.358 166.87 409.953 166.748 410.465 166.503C410.982 166.258 411.385 165.913 411.675 165.469C411.969 165.024 412.117 164.501 412.117 163.9C412.117 163.322 411.989 162.819 411.733 162.39C411.477 161.962 411.116 161.629 410.649 161.389C410.187 161.15 409.642 161.031 409.014 161.031C408.424 161.031 407.868 161.139 407.345 161.356C406.828 161.567 406.405 161.876 406.077 162.282C405.749 162.682 405.571 163.166 405.543 163.733H403.541C403.575 162.838 403.844 162.054 404.35 161.381C404.857 160.703 405.518 160.174 406.336 159.796C407.159 159.418 408.063 159.229 409.047 159.229C410.104 159.229 411.01 159.443 411.766 159.871C412.523 160.294 413.104 160.853 413.51 161.548C413.916 162.243 414.119 162.994 414.119 163.8C414.119 164.762 413.866 165.583 413.36 166.261C412.859 166.939 412.178 167.409 411.316 167.671V167.804C412.395 167.982 413.237 168.441 413.843 169.181C414.45 169.915 414.753 170.824 414.753 171.908C414.753 172.837 414.5 173.671 413.994 174.411C413.493 175.145 412.809 175.723 411.942 176.146C411.074 176.569 410.087 176.78 408.98 176.78Z" fill="#263238"/>
<path d="M241.98 347.387C240.879 347.387 239.898 347.198 239.036 346.82C238.179 346.441 237.498 345.916 236.992 345.243C236.491 344.565 236.219 343.778 236.174 342.882H238.276C238.321 343.433 238.51 343.908 238.844 344.309C239.177 344.704 239.614 345.009 240.153 345.226C240.693 345.443 241.291 345.552 241.947 345.552C242.681 345.552 243.332 345.424 243.899 345.168C244.466 344.912 244.911 344.556 245.233 344.1C245.556 343.644 245.717 343.116 245.717 342.515C245.717 341.887 245.562 341.334 245.25 340.855C244.939 340.371 244.483 339.993 243.882 339.721C243.281 339.448 242.547 339.312 241.68 339.312H240.312V337.477H241.68C242.358 337.477 242.953 337.355 243.465 337.11C243.982 336.865 244.385 336.52 244.675 336.075C244.969 335.631 245.117 335.108 245.117 334.507C245.117 333.929 244.989 333.426 244.733 332.997C244.477 332.569 244.116 332.235 243.649 331.996C243.187 331.757 242.642 331.638 242.014 331.638C241.424 331.638 240.868 331.746 240.345 331.963C239.828 332.174 239.405 332.483 239.077 332.889C238.749 333.289 238.571 333.773 238.543 334.34H236.541C236.575 333.445 236.844 332.661 237.35 331.988C237.857 331.31 238.518 330.781 239.336 330.403C240.159 330.025 241.063 329.836 242.047 329.836C243.104 329.836 244.01 330.05 244.766 330.478C245.523 330.901 246.104 331.46 246.51 332.155C246.916 332.85 247.119 333.601 247.119 334.407C247.119 335.369 246.866 336.189 246.36 336.868C245.859 337.546 245.178 338.016 244.316 338.278V338.411C245.395 338.589 246.237 339.048 246.843 339.788C247.45 340.522 247.753 341.431 247.753 342.515C247.753 343.444 247.5 344.278 246.994 345.018C246.493 345.752 245.809 346.33 244.942 346.753C244.074 347.176 243.087 347.387 241.98 347.387Z" fill="#263238"/>
<path d="M432.903 486.01C429.516 486.01 426.13 486.01 422.744 486.01C413.612 486.01 404.479 486.01 395.347 486.01C381.806 486.01 368.266 486.01 354.726 486.01C338.205 486.01 321.685 486.01 305.165 486.01C287.07 486.01 268.975 486.01 250.88 486.01C232.617 486.01 214.353 486.01 196.089 486.01C179.116 486.01 162.144 486.01 145.171 486.01C130.731 486.01 116.29 486.01 101.85 486.01C91.5382 486.01 81.2279 486.01 70.9162 486.01C66.0356 486.01 61.0729 485.752 56.1963 486.01C55.9863 486.021 55.7737 486.01 55.5637 486.01C56.4049 486.852 57.2462 487.693 58.0874 488.534C58.0874 485.123 58.0874 481.713 58.0874 478.302C58.0874 469.103 58.0874 459.903 58.0874 450.705C58.0874 437.066 58.0874 423.428 58.0874 409.789C58.0874 393.15 58.0874 376.511 58.0874 359.87C58.0874 341.709 58.0874 323.547 58.0874 305.387C58.0874 286.93 58.0874 268.473 58.0874 250.015C58.0874 232.923 58.0874 215.831 58.0874 198.739C58.0874 184.244 58.0874 169.748 58.0874 155.253C58.0874 144.83 58.0874 134.408 58.0874 123.988C58.0874 119.09 58.362 114.101 58.0874 109.21C58.0753 108.996 58.0874 108.778 58.0874 108.564C57.2462 109.405 56.4049 110.246 55.5637 111.088C58.9502 111.088 62.3367 111.088 65.7233 111.088C74.8559 111.088 83.9885 111.088 93.1211 111.088C106.662 111.088 120.201 111.088 133.742 111.088C150.263 111.088 166.782 111.088 183.303 111.088C201.397 111.088 219.493 111.088 237.587 111.088C255.851 111.088 274.115 111.088 292.379 111.088C309.352 111.088 326.324 111.088 343.297 111.088C357.737 111.088 372.178 111.088 386.618 111.088C396.929 111.088 407.24 111.088 417.552 111.088C422.434 111.088 427.395 111.346 432.271 111.088C432.481 111.077 432.694 111.088 432.904 111.088C432.063 110.246 431.222 109.405 430.38 108.564C430.38 111.975 430.38 115.385 430.38 118.796C430.38 127.995 430.38 137.195 430.38 146.393C430.38 160.032 430.38 173.67 430.38 187.309C430.38 203.948 430.38 220.587 430.38 237.228C430.38 255.39 430.38 273.551 430.38 291.713C430.38 310.169 430.38 328.627 430.38 347.083C430.38 364.176 430.38 381.267 430.38 398.359C430.38 412.854 430.38 427.35 430.38 441.846C430.38 452.268 430.38 462.69 430.38 473.11C430.38 478.033 430.287 482.966 430.38 487.888C430.384 488.103 430.38 488.319 430.38 488.534C430.38 491.782 435.428 491.788 435.428 488.534C435.428 485.123 435.428 481.713 435.428 478.302C435.428 469.103 435.428 459.903 435.428 450.705C435.428 437.066 435.428 423.428 435.428 409.789C435.428 393.15 435.428 376.511 435.428 359.87C435.428 341.709 435.428 323.547 435.428 305.387C435.428 286.93 435.428 268.473 435.428 250.015C435.428 232.923 435.428 215.831 435.428 198.739C435.428 184.244 435.428 169.748 435.428 155.253C435.428 144.83 435.428 134.408 435.428 123.988C435.428 119.065 435.521 114.132 435.428 109.21C435.424 108.995 435.428 108.779 435.428 108.564C435.428 107.199 434.272 106.04 432.904 106.04C429.517 106.04 426.131 106.04 422.746 106.04C413.613 106.04 404.481 106.04 395.348 106.04C381.807 106.04 368.268 106.04 354.727 106.04C338.206 106.04 321.687 106.04 305.166 106.04C287.072 106.04 268.976 106.04 250.882 106.04C232.618 106.04 214.354 106.04 196.09 106.04C179.117 106.04 162.145 106.04 145.172 106.04C130.732 106.04 116.291 106.04 101.851 106.04C91.5396 106.04 81.2292 106.04 70.9175 106.04C66.014 106.04 61.1011 105.95 56.1976 106.04C55.9877 106.044 55.7763 106.04 55.565 106.04C54.2002 106.04 53.0413 107.196 53.0413 108.564C53.0413 111.975 53.0413 115.385 53.0413 118.796C53.0413 127.995 53.0413 137.195 53.0413 146.393C53.0413 160.032 53.0413 173.67 53.0413 187.309C53.0413 203.948 53.0413 220.587 53.0413 237.228C53.0413 255.39 53.0413 273.551 53.0413 291.713C53.0413 310.169 53.0413 328.627 53.0413 347.083C53.0413 364.176 53.0413 381.267 53.0413 398.359C53.0413 412.854 53.0413 427.35 53.0413 441.846C53.0413 452.268 53.0413 462.69 53.0413 473.11C53.0413 478.033 52.9484 482.966 53.0413 487.888C53.0453 488.103 53.0413 488.319 53.0413 488.534C53.0413 489.899 54.1975 491.058 55.565 491.058C58.9516 491.058 62.3381 491.058 65.7246 491.058C74.8573 491.058 83.9899 491.058 93.1225 491.058C106.663 491.058 120.203 491.058 133.743 491.058C150.264 491.058 166.784 491.058 183.304 491.058C201.399 491.058 219.494 491.058 237.589 491.058C255.853 491.058 274.116 491.058 292.38 491.058C309.353 491.058 326.325 491.058 343.298 491.058C357.738 491.058 372.179 491.058 386.619 491.058C396.931 491.058 407.241 491.058 417.553 491.058C422.456 491.058 427.369 491.148 432.273 491.058C432.483 491.054 432.694 491.058 432.905 491.058C436.151 491.058 436.156 486.01 432.903 486.01Z" fill="#263238"/>
<path d="M178.556 110.592C178.556 159.622 178.556 208.651 178.556 257.68C178.556 306.459 178.556 355.238 178.556 404.019C178.556 431.535 178.556 459.051 178.556 486.569C178.556 489.817 183.603 489.822 183.603 486.569C183.603 437.54 183.603 388.51 183.603 339.481C183.603 290.702 183.603 241.923 183.603 193.142C183.603 165.626 183.603 138.11 183.603 110.592C183.603 107.344 178.556 107.339 178.556 110.592Z" fill="#263238"/>
<path d="M304.474 110.592C304.474 159.622 304.474 208.651 304.474 257.68C304.474 306.459 304.474 355.238 304.474 404.019C304.474 431.535 304.474 459.051 304.474 486.569C304.474 489.817 309.522 489.822 309.522 486.569C309.522 437.54 309.522 388.51 309.522 339.481C309.522 290.702 309.522 241.923 309.522 193.142C309.522 165.626 309.522 138.11 309.522 110.592C309.522 107.344 304.474 107.339 304.474 110.592Z" fill="#263238"/>
<path d="M55.7871 237.389C104.477 237.389 153.166 237.389 201.856 237.389C250.297 237.389 298.739 237.389 347.18 237.389C374.506 237.389 401.832 237.389 429.158 237.389C432.406 237.389 432.411 232.342 429.158 232.342C380.468 232.342 331.779 232.342 283.089 232.342C234.648 232.342 186.206 232.342 137.765 232.342C110.439 232.342 83.1136 232.342 55.7871 232.342C52.5392 232.342 52.5338 237.389 55.7871 237.389Z" fill="#263238"/>
<path d="M55.7871 362.925C104.477 362.925 153.166 362.925 201.856 362.925C250.297 362.925 298.739 362.925 347.18 362.925C374.506 362.925 401.832 362.925 429.158 362.925C432.406 362.925 432.411 357.878 429.158 357.878C380.468 357.878 331.779 357.878 283.089 357.878C234.648 357.878 186.206 357.878 137.765 357.878C110.439 357.878 83.1136 357.878 55.7871 357.878C52.5392 357.878 52.5338 362.925 55.7871 362.925Z" fill="#263238"/>
<path d="M98.6759 487.568C98.4821 487.568 98.3259 402.949 98.3259 298.59C98.3259 194.194 98.4834 109.594 98.6759 109.594C98.8684 109.594 99.0259 194.195 99.0259 298.59C99.0272 402.948 98.8697 487.568 98.6759 487.568Z" fill="#263238"/>
<path d="M139.297 487.568C139.103 487.568 138.947 402.949 138.947 298.59C138.947 194.194 139.105 109.594 139.297 109.594C139.489 109.594 139.647 194.195 139.647 298.59C139.648 402.948 139.491 487.568 139.297 487.568Z" fill="#263238"/>
<path d="M222.686 487.568C222.492 487.568 222.336 402.949 222.336 298.59C222.336 194.194 222.493 109.594 222.686 109.594C222.879 109.594 223.036 194.195 223.036 298.59C223.036 402.948 222.879 487.568 222.686 487.568Z" fill="#263238"/>
<path d="M264.77 487.568C264.576 487.568 264.42 402.949 264.42 298.59C264.42 194.194 264.577 109.594 264.77 109.594C264.963 109.594 265.12 194.195 265.12 298.59C265.12 402.948 264.962 487.568 264.77 487.568Z" fill="#263238"/>
<path d="M348.936 487.568C348.743 487.568 348.586 402.949 348.586 298.59C348.586 194.194 348.744 109.594 348.936 109.594C349.13 109.594 349.286 194.195 349.286 298.59C349.286 402.948 349.13 487.568 348.936 487.568Z" fill="#263238"/>
<path d="M391.24 487.568C391.046 487.568 390.89 402.949 390.89 298.59C390.89 194.194 391.047 109.594 391.24 109.594C391.432 109.594 391.59 194.195 391.59 298.59C391.591 402.948 391.434 487.568 391.24 487.568Z" fill="#263238"/>
<path d="M430.766 149.927C430.766 150.12 347.246 150.277 244.242 150.277C141.202 150.277 57.6997 150.119 57.6997 149.927C57.6997 149.733 141.203 149.577 244.242 149.577C347.246 149.577 430.766 149.734 430.766 149.927Z" fill="#263238"/>
<path d="M430.766 191.576C430.766 191.77 347.246 191.926 244.242 191.926C141.202 191.926 57.6997 191.769 57.6997 191.576C57.6997 191.384 141.203 191.226 244.242 191.226C347.246 191.225 430.766 191.382 430.766 191.576Z" fill="#263238"/>
<path d="M430.766 275.743C430.766 275.936 347.246 276.093 244.242 276.093C141.202 276.093 57.6997 275.935 57.6997 275.743C57.6997 275.549 141.203 275.393 244.242 275.393C347.246 275.393 430.766 275.549 430.766 275.743Z" fill="#263238"/>
<path d="M430.766 318.361C430.766 318.555 347.246 318.711 244.242 318.711C141.202 318.711 57.6997 318.554 57.6997 318.361C57.6997 318.167 141.203 318.011 244.242 318.011C347.246 318.011 430.766 318.167 430.766 318.361Z" fill="#263238"/>
<path d="M430.766 402.844C430.766 403.038 347.246 403.194 244.242 403.194C141.202 403.194 57.6997 403.037 57.6997 402.844C57.6997 402.652 141.203 402.494 244.242 402.494C347.246 402.494 430.766 402.65 430.766 402.844Z" fill="#263238"/>
<path d="M430.766 445.815C430.766 446.009 347.246 446.165 244.242 446.165C141.202 446.165 57.6997 446.008 57.6997 445.815C57.6997 445.623 141.203 445.465 244.242 445.465C347.246 445.465 430.766 445.621 430.766 445.815Z" fill="#263238"/>
<path d="M497.001 301.081L502.655 293.818C501.855 287.947 502.616 281.789 505.193 275.977C512.602 259.26 532.181 251.723 548.921 259.144C565.663 266.564 573.226 286.131 565.816 302.85C558.407 319.567 538.829 327.103 522.088 319.683C515.098 316.584 509.715 311.365 506.347 305.122L506.351 305.141L497.001 301.081Z" fill="white"/>
<path d="M497.001 301.081C496.989 301.084 497.18 301.177 497.569 301.356C497.994 301.55 498.576 301.814 499.325 302.156C500.939 302.878 503.272 303.923 506.292 305.274C506.366 305.308 506.453 305.274 506.486 305.2C506.5 305.169 506.501 305.134 506.494 305.105L506.49 305.087L506.217 305.192C508.194 308.904 511.569 313.517 517.081 317.205C518.453 318.12 519.953 318.964 521.567 319.713C522.37 320.095 523.233 320.379 524.086 320.725C524.934 321.092 525.836 321.341 526.757 321.582C530.415 322.601 534.502 323.058 538.74 322.654C542.974 322.257 547.349 321.002 551.439 318.795C555.525 316.595 559.317 313.434 562.312 309.451C568.39 301.57 570.794 290.074 567.482 279.579C565.815 274.268 562.924 269.428 559.078 265.706C555.277 261.944 550.681 259.209 545.88 257.618C541.061 256.06 536.06 255.671 531.393 256.262C526.717 256.846 522.374 258.398 518.665 260.568C511.192 264.933 506.454 271.623 504.207 277.806C501.918 284.052 501.921 289.751 502.514 293.839L502.542 293.734C500.745 296.101 499.35 297.94 498.379 299.217C497.934 299.812 497.586 300.275 497.331 300.617C497.102 300.928 496.989 301.085 497.001 301.081C497.001 301.081 497.149 300.916 497.406 300.601C497.679 300.262 498.051 299.803 498.529 299.212C499.517 297.975 500.938 296.195 502.767 293.905C502.791 293.875 502.801 293.835 502.795 293.798C502.269 289.736 502.326 284.104 504.633 277.961C506.898 271.876 511.6 265.328 518.961 261.07C522.615 258.954 526.885 257.447 531.473 256.888C536.055 256.323 540.953 256.717 545.674 258.252C550.377 259.821 554.874 262.509 558.593 266.194C562.356 269.842 565.181 274.583 566.814 279.782C570.055 290.056 567.717 301.309 561.776 309.046C558.85 312.954 555.141 316.062 551.138 318.232C547.134 320.411 542.842 321.659 538.685 322.066C534.522 322.48 530.504 322.052 526.898 321.069C525.991 320.837 525.1 320.597 524.264 320.24C523.423 319.904 522.57 319.631 521.775 319.259C520.18 318.532 518.696 317.711 517.335 316.817C511.872 313.221 508.49 308.7 506.477 305.048C506.439 304.977 506.349 304.948 506.278 304.987C506.217 305.02 506.189 305.09 506.204 305.153L506.208 305.171L506.409 305.001C503.398 303.736 501.071 302.759 499.463 302.083C498.686 301.761 498.083 301.512 497.643 301.33C497.231 301.164 497.001 301.081 497.001 301.081Z" fill="#263238"/>
<path d="M533.457 299.077C534.788 299.077 535.964 298.841 536.985 298.369C538 297.891 538.791 297.235 539.36 296.402C539.928 295.562 540.21 294.605 540.203 293.533C540.21 292.692 540.045 291.917 539.709 291.206C539.373 290.489 538.914 289.891 538.332 289.413C537.744 288.928 537.088 288.621 536.365 288.492V288.376C537.315 288.13 538.071 287.597 538.633 286.776C539.195 285.949 539.473 285.009 539.466 283.956C539.473 282.947 539.218 282.046 538.701 281.251C538.184 280.456 537.473 279.829 536.568 279.371C535.657 278.912 534.62 278.682 533.457 278.682C532.306 278.682 531.279 278.912 530.374 279.371C529.469 279.829 528.759 280.456 528.242 281.251C527.718 282.046 527.453 282.947 527.447 283.956C527.453 285.009 527.741 285.949 528.309 286.776C528.872 287.597 529.618 288.13 530.549 288.376V288.492C529.831 288.621 529.185 288.928 528.61 289.413C528.035 289.891 527.576 290.489 527.233 291.206C526.891 291.917 526.717 292.692 526.71 293.533C526.717 294.605 527.007 295.562 527.582 296.402C528.151 297.235 528.943 297.891 529.957 298.369C530.965 298.841 532.132 299.077 533.457 299.077ZM533.457 296.945C532.558 296.945 531.783 296.799 531.13 296.508C530.478 296.218 529.973 295.807 529.618 295.277C529.263 294.747 529.082 294.127 529.075 293.416C529.082 292.667 529.276 292.004 529.657 291.429C530.038 290.854 530.558 290.402 531.217 290.072C531.87 289.742 532.617 289.578 533.457 289.578C534.303 289.578 535.059 289.742 535.725 290.072C536.384 290.402 536.904 290.854 537.285 291.429C537.66 292.004 537.844 292.667 537.838 293.416C537.844 294.127 537.673 294.747 537.324 295.277C536.969 295.807 536.462 296.218 535.802 296.508C535.143 296.799 534.361 296.945 533.457 296.945ZM533.457 287.523C532.746 287.523 532.116 287.381 531.566 287.096C531.011 286.812 530.574 286.414 530.258 285.904C529.941 285.393 529.78 284.796 529.773 284.111C529.78 283.439 529.938 282.854 530.248 282.356C530.558 281.852 530.988 281.464 531.537 281.193C532.087 280.915 532.726 280.776 533.457 280.776C534.2 280.776 534.849 280.915 535.405 281.193C535.961 281.464 536.39 281.852 536.694 282.356C536.998 282.854 537.146 283.439 537.14 284.111C537.146 284.796 536.995 285.393 536.684 285.904C536.368 286.414 535.932 286.812 535.376 287.096C534.82 287.381 534.18 287.523 533.457 287.523Z" fill="#263238"/>
<path d="M505.149 418.546C512.586 424.419 524.392 424.214 531.521 418.088C538.65 411.961 538.4 402.233 530.964 396.358C523.529 390.485 511.722 390.69 504.593 396.816C497.465 402.943 497.713 412.671 505.149 418.546Z" fill="#2196F3"/>
<path d="M529.699 660.319L512.013 630.203L499.828 413.791L537.317 413.104L549.128 628.155L534.75 660.119C533.908 661.991 530.753 662.115 529.699 660.319Z" fill="#2196F3"/>
<path d="M549.128 628.155C547.538 627.339 545.514 627.645 544.865 629.092C543.894 626.342 540.653 624.247 537.18 624.126C533.708 624.004 530.263 625.864 529.012 628.536C526.924 626.285 523.314 625.063 519.909 625.453C516.504 625.843 513.435 627.829 512.169 630.463L529.75 660.404C530.786 662.168 533.884 662.045 534.711 660.208L549.128 628.155Z" fill="#FFBF9D"/>
<path d="M524.066 651.168C524.066 651.168 528.403 644.409 539.562 650.033L533.857 662.718C533.367 663.807 531.53 663.879 530.916 662.834L524.066 651.168Z" fill="#263238"/>
<path opacity="0.3" d="M529.012 628.536L518.153 414.818L499.924 414.78L512.013 630.203L512.168 630.464C512.168 630.464 512.811 628.884 514.596 627.545C515.792 626.647 517.537 625.787 519.631 625.492C522.325 625.111 524.657 625.708 526.29 626.527C528.053 627.408 529.012 628.536 529.012 628.536Z" fill="#07599B"/>
<path opacity="0.3" d="M544.865 629.092L532.694 413.258L537.52 413.264L549.129 628.154C549.129 628.154 546.88 626.892 545.177 628.578C545.041 628.712 544.975 628.907 544.865 629.092Z" fill="#07599B"/>
<path d="M499.862 415.899L537.381 413.756C537.911 413.725 538.31 413.347 538.274 412.911L537.473 403.385C537.436 402.949 536.977 402.619 536.447 402.65L498.928 404.793C498.399 404.823 497.999 405.202 498.036 405.638L498.837 415.164C498.874 415.599 499.333 415.929 499.862 415.899Z" fill="#E0E0E0"/>
<path d="M499.862 415.898C499.862 415.888 499.769 415.895 499.6 415.861C499.438 415.825 499.182 415.73 499.016 415.491C498.843 415.259 498.907 414.885 498.858 414.47C498.83 414.046 498.797 413.565 498.76 413.026C498.681 411.927 498.583 410.601 498.472 409.066C498.413 408.292 498.35 407.467 498.284 406.594C498.268 406.375 498.251 406.153 498.233 405.928C498.218 405.69 498.173 405.489 498.278 405.322C498.372 405.149 498.564 405.013 498.791 404.964C499.005 404.928 499.35 404.927 499.627 404.907C509.091 404.383 522.098 403.662 536.464 402.867C536.795 402.843 537.121 403.039 537.193 403.304C537.24 403.596 537.259 404.018 537.293 404.367C537.355 405.099 537.417 405.825 537.478 406.547C537.6 407.989 537.721 409.412 537.841 410.808C537.9 411.507 537.959 412.2 538.019 412.885C538.061 413.16 537.874 413.405 537.589 413.504C537.519 413.527 537.444 413.543 537.368 413.548L537.061 413.566L536.447 413.601C534.816 413.697 533.22 413.791 531.661 413.882C525.439 414.256 519.832 414.591 515.107 414.874C510.427 415.171 506.626 415.411 503.95 415.581C502.665 415.672 501.652 415.743 500.918 415.795C500.597 415.822 500.338 415.844 500.131 415.861C499.951 415.878 499.861 415.891 499.862 415.898C499.863 415.906 499.954 415.908 500.133 415.905C500.341 415.898 500.601 415.891 500.924 415.881C501.659 415.848 502.675 415.804 503.963 415.747C506.642 415.611 510.447 415.417 515.131 415.178C519.858 414.921 525.468 414.616 531.694 414.279C533.253 414.192 534.849 414.103 536.481 414.012L537.094 413.978L537.402 413.96C537.531 413.951 537.66 413.926 537.781 413.885C538.271 413.73 538.589 413.268 538.523 412.854C538.466 412.168 538.409 411.475 538.351 410.777C538.235 409.379 538.116 407.958 537.997 406.514C537.936 405.793 537.875 405.065 537.814 404.334C537.773 403.953 537.775 403.636 537.7 403.199C537.575 402.734 537.004 402.391 536.425 402.433C522.062 403.278 509.06 404.043 499.599 404.6C499.29 404.627 499.046 404.615 498.694 404.673C498.363 404.748 498.086 404.95 497.954 405.202C497.806 405.465 497.875 405.739 497.889 405.946C497.91 406.17 497.93 406.392 497.95 406.611C498.031 407.484 498.106 408.308 498.177 409.081C498.323 410.613 498.45 411.939 498.555 413.035C498.609 413.573 498.658 414.054 498.701 414.477C498.769 414.885 498.712 415.263 498.924 415.532C499.125 415.791 499.412 415.878 499.588 415.901C499.771 415.925 499.862 415.898 499.862 415.898Z" fill="#263238"/>
<path d="M532.22 403.111C532.075 403.117 532.103 405.547 532.281 408.539C532.459 411.533 532.72 413.953 532.865 413.947C533.01 413.941 532.982 411.511 532.804 408.519C532.627 405.526 532.365 403.106 532.22 403.111Z" fill="#263238"/>
<path d="M517.887 403.557C517.739 403.562 517.759 406.076 517.762 409.173C517.77 412.271 517.759 414.785 517.907 414.79C518.049 414.796 518.295 412.281 518.287 409.173C518.284 406.064 518.029 403.55 517.887 403.557Z" fill="#263238"/>
<path d="M501.901 415.714C502.046 415.706 502.057 413.241 501.924 410.209C501.792 407.175 501.568 404.717 501.422 404.718C501.278 404.719 501.267 407.184 501.399 410.224C501.532 413.263 501.758 415.721 501.901 415.714Z" fill="#263238"/>
<path d="M357.452 379.413L364.746 385.132C364.746 385.132 385.008 418.034 387.637 420.727C389.296 422.428 392.013 424.062 397.381 423.979C404.199 423.874 421.707 402.433 421.707 402.433L411.75 381.188L395.74 398.708L372.105 372.327L357.452 379.413Z" fill="#FFBF9D"/>
<path d="M358.886 380.952C357.065 378.829 355.047 377.128 355.047 377.128L353.073 375.086C352.985 375.255 352.921 375.44 352.865 375.621C352.758 375.966 352.648 376.331 352.387 376.58C351.891 377.053 351.07 376.915 350.467 376.589C349.205 375.907 348.36 374.515 348.337 373.081C348.315 371.703 349.057 370.345 350.213 369.6C350.308 369.249 350.467 368.893 350.73 368.544C352.345 366.403 356.209 366.626 356.209 366.626L355.619 365.814C355.619 365.814 352.962 364.216 348.629 367.061C347.982 367.485 347.198 367.693 346.433 367.577C345.964 367.505 345.508 367.313 345.245 366.881C344.59 365.807 345.18 365.063 347.861 363.25C350.542 361.437 353.725 360.577 355.767 361.298C357.809 362.019 358.56 362.433 358.56 362.433C358.56 362.433 353.657 354.794 353.367 354.299C352.526 352.864 352.462 351.284 353.364 350.628C353.943 350.207 354.981 350.104 356.011 351.745C356.903 353.164 367.892 366.539 367.892 366.539L372.406 372.741L358.886 380.952Z" fill="#FFBF9D"/>
<path d="M370.812 373.008C370.147 373.736 368.951 373.667 368.067 373.229C367.183 372.79 366.474 372.066 365.625 371.565C363.085 370.068 359.655 370.75 357.19 369.133C356.846 368.907 356.492 368.521 356.64 368.138C356.777 367.782 357.237 367.706 357.617 367.684C360.868 367.498 364.118 367.313 367.37 367.127" fill="#FFBF9D"/>
<path d="M367.37 367.127C367.367 367.088 366.99 367.073 366.309 367.079C365.627 367.084 364.644 367.11 363.428 367.154C362.163 367.209 360.727 367.271 359.16 367.338C358.756 367.358 358.345 367.377 357.927 367.398C357.538 367.448 357.007 367.339 356.522 367.811C356.291 368.059 356.288 368.478 356.437 368.732C356.574 368.994 356.768 369.171 356.977 369.321C357.386 369.584 357.805 369.81 358.26 369.974C360.081 370.643 361.887 370.646 363.419 371.007C364.188 371.175 364.894 371.414 365.491 371.753C366.087 372.092 366.599 372.522 367.112 372.869C368.112 373.619 369.24 373.824 369.926 373.614C370.634 373.416 370.838 373.007 370.814 373.007C370.779 372.962 370.526 373.291 369.88 373.402C369.236 373.52 368.273 373.301 367.34 372.548C366.86 372.195 366.362 371.742 365.725 371.354C365.087 370.966 364.333 370.695 363.536 370.506C361.945 370.11 360.14 370.079 358.459 369.453C358.041 369.303 357.649 369.09 357.298 368.867C356.962 368.64 356.779 368.308 356.941 368.162C357.093 367.975 357.541 367.949 357.959 367.928C358.377 367.901 358.788 367.874 359.191 367.848C360.756 367.737 362.19 367.635 363.453 367.545C364.666 367.451 365.646 367.365 366.323 367.293C366.998 367.223 367.372 367.165 367.37 367.127Z" fill="#FF9A6C"/>
<path d="M356.338 366.601C356.286 366.653 355.961 365.909 354.903 365.441C354.384 365.214 353.692 365.139 352.958 365.314C352.22 365.48 351.463 365.861 350.696 366.323C349.925 366.781 349.175 367.24 348.409 367.5C347.649 367.757 346.905 367.845 346.289 367.712C345.664 367.586 345.274 367.161 345.141 366.85C345.002 366.532 345.007 366.339 345.021 366.337C345.054 366.327 345.099 366.51 345.264 366.782C345.428 367.05 345.78 367.378 346.339 367.461C346.889 367.551 347.587 367.446 348.298 367.187C349.013 366.926 349.736 366.477 350.512 366.012C351.288 365.547 352.09 365.149 352.888 364.99C353.683 364.817 354.459 364.929 355.008 365.209C355.565 365.482 355.913 365.856 356.107 366.131C356.302 366.411 356.357 366.593 356.338 366.601Z" fill="#FF9A6C"/>
<path d="M353.051 353.741C353.097 353.717 353.457 354.304 354.036 355.253C354.685 356.306 355.458 357.562 356.312 358.952C357.187 360.327 357.979 361.571 358.644 362.616C359.244 363.551 359.614 364.132 359.574 364.162C359.535 364.19 359.091 363.661 358.434 362.759C357.776 361.859 356.911 360.584 356.007 359.142C355.105 357.701 354.337 356.365 353.815 355.38C353.292 354.394 353.01 353.763 353.051 353.741Z" fill="#FF9A6C"/>
<path d="M355.697 369.424C355.699 369.451 355.495 369.474 355.142 369.532C354.806 369.593 354.242 369.707 353.927 370.218C353.773 370.465 353.773 370.789 353.932 371.106C354.08 371.426 354.35 371.717 354.629 372.053C354.902 372.38 355.216 372.816 355.205 373.369C355.186 373.907 354.876 374.41 354.419 374.713C353.951 375.024 353.375 375.066 352.89 374.95C352.399 374.828 351.969 374.59 351.65 374.24C351.067 373.557 350.711 372.86 350.442 372.257C350.183 371.65 350.053 371.122 350.035 370.748C350.019 370.372 350.096 370.172 350.112 370.177C350.144 370.183 350.117 370.383 350.174 370.732C350.231 371.082 350.393 371.576 350.673 372.152C350.958 372.718 351.343 373.401 351.892 374.016C352.418 374.57 353.463 374.907 354.219 374.414C354.588 374.172 354.837 373.76 354.853 373.358C354.868 372.954 354.633 372.586 354.371 372.261C354.111 371.931 353.823 371.612 353.659 371.227C353.479 370.858 353.493 370.383 353.711 370.084C354.142 369.473 354.782 369.418 355.126 369.392C355.495 369.376 355.695 369.402 355.697 369.424Z" fill="#FF9A6C"/>
<path d="M352.869 374.639C352.882 374.627 353.027 374.763 353.1 375.099C353.168 375.422 353.132 375.974 352.706 376.448C352.287 376.912 351.499 377.182 350.698 376.988C349.898 376.802 349.164 376.214 348.674 375.442C348.183 374.664 347.984 373.771 348.039 372.979C348.088 372.181 348.385 371.506 348.716 371.017C349.051 370.525 349.421 370.209 349.69 370.025C349.963 369.841 350.135 369.778 350.145 369.797C350.189 369.852 349.517 370.19 348.93 371.155C348.646 371.632 348.397 372.267 348.369 372.997C348.336 373.723 348.53 374.539 348.979 375.25C349.425 375.957 350.088 376.491 350.778 376.667C351.463 376.851 352.15 376.642 352.524 376.271C352.905 375.896 352.984 375.414 352.961 375.118C352.937 374.812 352.841 374.653 352.869 374.639Z" fill="#FF9A6C"/>
<path d="M361.388 376.438C361.368 376.412 361.61 376.181 362.127 375.986C362.636 375.792 363.453 375.662 364.334 375.945L364.124 376.183C363.954 375.84 363.79 375.459 363.649 375.053C362.848 372.796 363.124 370.825 363.212 370.852C363.322 370.849 363.215 372.763 363.988 374.933C364.126 375.325 364.279 375.696 364.435 376.033L364.607 376.404L364.224 376.27C363.44 375.995 362.687 376.064 362.191 376.191C361.689 376.319 361.412 376.479 361.388 376.438Z" fill="#FF9A6C"/>
<path d="M353.008 363.466C353.103 363.456 353.154 364.194 352.661 364.907C352.175 365.626 351.47 365.847 351.445 365.755C351.399 365.661 351.945 365.332 352.365 364.705C352.797 364.086 352.904 363.456 353.008 363.466Z" fill="#FF9A6C"/>
<path d="M395.291 407.356C395.442 407.361 395.629 405.437 395.711 403.059C395.793 400.681 395.737 398.748 395.586 398.743C395.435 398.738 395.248 400.662 395.166 403.041C395.084 405.419 395.141 407.352 395.291 407.356Z" fill="#FF9A6C"/>
<path d="M467.357 363.209L470.021 318.384C471.047 307.255 465.425 297.381 454.272 296.664L453.238 296.658C442.826 296.597 434.11 304.537 433.211 314.91C432.375 324.562 431.576 335.236 431.609 340.416C431.678 351.14 442.394 352.871 442.394 352.871C442.418 352.872 442.153 359.386 441.999 362.529L450.049 374.888L450.02 375.527L467.357 363.209Z" fill="#FFBF9D"/>
<path d="M442.395 352.872C442.395 352.872 449.152 353.308 456.382 348.826C456.382 348.826 452.976 356.868 442.28 355.84L442.395 352.872Z" fill="#FF9A6C"/>
<path d="M436.184 324.304C436.151 325.113 436.808 325.808 437.652 325.858C438.494 325.909 439.206 325.295 439.238 324.487C439.272 323.679 438.614 322.982 437.773 322.932C436.929 322.882 436.217 323.495 436.184 324.304Z" fill="#263238"/>
<path d="M435.463 319.659C435.652 319.86 436.816 319.008 438.465 319.022C440.111 319.013 441.315 319.867 441.495 319.667C441.584 319.578 441.393 319.216 440.869 318.829C440.353 318.444 439.471 318.068 438.444 318.066C437.417 318.066 436.551 318.438 436.052 318.822C435.545 319.21 435.371 319.569 435.463 319.659Z" fill="#263238"/>
<path d="M450.874 324.998C450.841 325.806 451.498 326.501 452.342 326.552C453.184 326.602 453.896 325.99 453.928 325.18C453.962 324.372 453.305 323.676 452.463 323.625C451.619 323.575 450.907 324.189 450.874 324.998Z" fill="#263238"/>
<path d="M451.616 320.136C451.805 320.338 452.971 319.486 454.619 319.5C456.265 319.491 457.469 320.345 457.649 320.145C457.738 320.056 457.548 319.695 457.021 319.308C456.506 318.923 455.624 318.547 454.598 318.545C453.571 318.545 452.705 318.918 452.206 319.301C451.698 319.687 451.523 320.047 451.616 320.136Z" fill="#263238"/>
<path d="M445.629 332.764C445.638 332.671 444.615 332.487 442.956 332.265C442.536 332.219 442.137 332.133 442.068 331.846C441.97 331.542 442.15 331.089 442.356 330.6C442.758 329.584 443.178 328.519 443.62 327.404C445.375 322.852 446.648 319.108 446.464 319.039C446.279 318.969 444.708 322.603 442.953 327.155C442.53 328.278 442.126 329.348 441.742 330.372C441.58 330.849 441.303 331.39 441.514 332.022C441.626 332.338 441.934 332.567 442.202 332.642C442.472 332.725 442.709 332.732 442.916 332.745C444.586 332.845 445.622 332.859 445.629 332.764Z" fill="#263238"/>
<path d="M451.113 314.979C451.334 315.401 452.936 314.969 454.883 314.938C456.83 314.869 458.45 315.218 458.651 314.786C458.738 314.58 458.412 314.199 457.728 313.854C457.051 313.509 456.007 313.237 454.84 313.265C453.673 313.297 452.644 313.623 451.985 314.001C451.32 314.381 451.014 314.778 451.113 314.979Z" fill="#263238"/>
<path d="M435.417 314.813C435.751 315.195 437.102 314.834 438.715 314.849C440.329 314.817 441.688 315.163 442.011 314.778C442.153 314.591 441.946 314.212 441.356 313.845C440.775 313.48 439.797 313.171 438.688 313.176C437.579 313.182 436.611 313.502 436.042 313.873C435.464 314.246 435.269 314.628 435.417 314.813Z" fill="#263238"/>
<path d="M469.099 326.319C469.282 326.241 476.48 324.183 476.203 331.513C475.925 338.843 468.624 337.052 468.619 336.842C468.614 336.632 469.099 326.319 469.099 326.319Z" fill="#FFBF9D"/>
<path d="M470.963 334.15C470.995 334.128 471.088 334.245 471.299 334.352C471.506 334.455 471.866 334.536 472.253 334.407C473.039 334.153 473.737 332.948 473.823 331.628C473.867 330.962 473.751 330.321 473.535 329.786C473.331 329.241 472.999 328.854 472.611 328.769C472.226 328.665 471.941 328.887 471.845 329.091C471.739 329.292 471.78 329.44 471.74 329.451C471.719 329.469 471.587 329.323 471.658 329.023C471.694 328.878 471.786 328.708 471.964 328.574C472.146 328.438 472.407 328.374 472.677 328.414C473.241 328.474 473.73 329.013 473.969 329.6C474.237 330.192 474.383 330.912 474.334 331.66C474.231 333.136 473.422 334.489 472.351 334.755C471.83 334.871 471.406 334.699 471.19 334.517C470.969 334.328 470.937 334.162 470.963 334.15Z" fill="#FF9A6C"/>
<path d="M418.878 304.573C419.01 304.145 419.337 303.801 419.731 303.587C420.588 303.122 421.553 303.223 422.488 303.24C424.815 303.286 427.144 302.774 429.256 301.796C428.547 301.404 427.887 300.934 427.334 300.34C426.191 299.116 425.574 297.281 426.174 295.718C426.286 295.424 426.471 295.119 426.774 295.038C427.255 294.909 427.655 295.391 427.974 295.774C429.023 297.033 430.012 297.593 431.647 297.487C432.662 297.421 433.65 297.229 434.463 296.762C434.495 296.731 434.526 296.695 434.558 296.664C434.953 296.284 435.339 295.921 435.719 295.571L435.721 295.568L435.72 295.57C438.576 292.933 441.015 291.124 443.493 290.228C447.123 288.915 453.13 288.546 456.826 289.658C460.523 290.772 463.766 293.919 464.147 297.76C466.303 296.066 469.445 296.194 471.957 297.31L472.022 297.284C474.824 298.398 476.33 301.455 477.064 304.38C477.103 304.54 477.138 304.702 477.175 304.862C478.079 306.418 479.337 307.768 480.861 308.73C481.129 308.9 481.436 309.106 481.459 309.423C481.481 309.736 481.208 309.987 480.946 310.161C480.247 310.624 479.443 310.916 478.614 311.033C478.849 311.73 479.13 312.41 479.483 313.062C479.784 313.616 480.142 314.28 479.842 314.834C479.61 315.262 479.048 315.423 478.569 315.335C478.09 315.247 477.672 314.965 477.269 314.689C477.558 315.458 477.848 316.228 478.137 316.996C477.103 317.139 476.043 317.018 475.057 316.68C474.357 319.366 473.724 324.362 472.961 326.172C471.014 326.136 470.549 325.908 469.555 326.198C468.271 326.574 468.674 328.838 467.045 328.141C466.216 327.786 465.038 324.552 464.788 323.685C463.124 317.934 462.722 311.823 463.61 305.902C462.479 304.606 461.097 303.532 459.563 302.755L459.685 302.873C456.725 301.725 453.372 300.579 450.477 301.885C448.232 302.898 446.854 305.14 445.139 306.908C441.889 310.257 438.284 311.979 433.617 312.012C433.081 315.234 432.766 320.522 432.5 323.536L430.138 317.399L430.135 317.423C429.939 317.061 429.78 316.699 429.626 316.335L429.573 316.225L429.574 316.211C429.331 315.627 429.1 315.043 428.786 314.462C428.775 314.471 428.766 314.479 428.756 314.487C427.068 315.871 424.737 313.578 426.09 311.864C426.359 311.525 426.676 311.225 427.035 310.981C426.262 311.656 425.135 311.953 424.165 311.616C423.196 311.279 422.47 310.26 422.592 309.24C422.675 308.545 423.196 307.938 423.836 307.686C422.511 307.74 421.169 307.404 420.041 306.705C419.303 306.249 418.588 305.513 418.878 304.573Z" fill="#263238"/>
<path d="M460.728 298.871C460.706 298.898 461.167 299.17 461.769 299.894C462.364 300.613 463.017 301.852 463.288 303.515C463.427 304.342 463.501 305.264 463.464 306.251C463.432 307.239 463.315 308.295 463.2 309.407C463.087 310.519 462.966 311.695 462.993 312.922C463.007 313.536 463.058 314.16 463.168 314.787C463.281 315.404 463.418 316.073 463.86 316.615C464.212 317.056 464.819 317.268 465.356 317.178C465.896 317.102 466.383 316.834 466.746 316.456C467.466 315.675 467.674 314.661 467.878 313.766L467.651 313.785C467.99 314.608 468.339 315.421 468.876 316.079C469.403 316.742 470.15 317.194 470.922 317.29C471.307 317.338 471.698 317.291 472.036 317.136C472.379 316.984 472.635 316.712 472.814 316.423C472.984 316.127 473.081 315.8 473.076 315.48C473.068 315.162 472.955 314.855 472.761 314.633L472.644 314.731C473.437 315.703 474.293 316.241 474.886 316.542C475.186 316.693 475.427 316.787 475.591 316.845C475.755 316.901 475.841 316.924 475.844 316.918C475.847 316.91 475.765 316.874 475.606 316.806C475.449 316.734 475.215 316.631 474.925 316.469C474.349 316.148 473.522 315.599 472.763 314.635L472.646 314.733C472.993 315.128 472.99 315.8 472.659 316.33C472.494 316.591 472.259 316.832 471.956 316.961C471.655 317.095 471.299 317.137 470.947 317.089C470.239 316.992 469.542 316.569 469.049 315.94C468.542 315.311 468.205 314.519 467.87 313.695L467.729 313.346L467.644 313.715C467.44 314.608 467.221 315.583 466.566 316.286C466.241 316.623 465.794 316.865 465.323 316.93C464.849 317.005 464.358 316.832 464.051 316.453C463.664 315.985 463.522 315.35 463.412 314.744C463.305 314.133 463.253 313.521 463.237 312.918C463.207 311.71 463.322 310.544 463.428 309.432C463.537 308.32 463.647 307.26 463.67 306.259C463.698 305.259 463.613 304.323 463.461 303.486C463.164 301.8 462.472 300.545 461.842 299.833C461.208 299.115 460.728 298.871 460.728 298.871Z" fill="#455A64"/>
<path d="M427.164 308.122C427.161 308.125 427.189 308.151 427.248 308.198C427.318 308.254 427.404 308.321 427.509 308.403C427.623 308.495 427.768 308.602 427.953 308.711C428.135 308.824 428.341 308.961 428.594 309.078C429.573 309.588 431.155 310.115 433.157 310.069C435.139 310.028 437.54 309.412 439.717 307.91C441.916 306.446 443.879 304.243 445.51 301.697C446.337 300.427 447.021 299.117 447.766 297.913C448.506 296.707 449.317 295.597 450.28 294.733C451.233 293.863 452.326 293.234 453.439 292.967C453.994 292.824 454.548 292.807 455.076 292.837C455.604 292.884 456.101 293.009 456.558 293.178C457.472 293.522 458.2 294.059 458.747 294.605C459.296 295.155 459.657 295.729 459.901 296.218C460.354 297.222 460.358 297.856 460.397 297.847C460.401 297.847 460.4 297.809 460.393 297.734C460.383 297.645 460.37 297.536 460.354 297.404C460.312 297.115 460.203 296.694 459.99 296.177C459.756 295.672 459.4 295.079 458.848 294.506C458.297 293.939 457.559 293.377 456.622 293.012C456.153 292.834 455.641 292.699 455.093 292.645C454.547 292.607 453.965 292.621 453.391 292.765C452.235 293.032 451.105 293.676 450.126 294.561C449.134 295.441 448.306 296.571 447.557 297.784C446.804 298.997 446.119 300.303 445.299 301.562C443.68 304.088 441.746 306.266 439.589 307.718C437.451 309.208 435.107 309.828 433.152 309.892C431.182 309.96 429.619 309.467 428.638 308.991C427.647 308.507 427.184 308.091 427.164 308.122Z" fill="#455A64"/>
<path d="M426.356 303.371C426.346 303.386 426.48 303.485 426.731 303.653C426.979 303.826 427.361 304.041 427.85 304.273C428.336 304.509 428.943 304.735 429.632 304.93C430.324 305.113 431.102 305.258 431.928 305.319C432.754 305.37 433.544 305.332 434.255 305.245C434.965 305.144 435.596 305.002 436.111 304.835C436.626 304.67 437.033 304.51 437.303 304.371C437.574 304.239 437.72 304.159 437.713 304.143C437.694 304.1 437.09 304.383 436.062 304.663C435.549 304.806 434.925 304.928 434.228 305.014C433.529 305.087 432.755 305.118 431.946 305.067C431.137 305.008 430.374 304.872 429.692 304.706C429.012 304.526 428.41 304.322 427.922 304.11C426.941 303.694 426.381 303.331 426.356 303.371Z" fill="#455A64"/>
<path d="M450.903 334.471C448.943 334.734 447.016 335.237 445.177 335.961L445.159 336.01C445.313 337.346 445.628 338.822 446.733 339.587C447.556 340.157 448.698 340.181 449.587 339.722C450.476 339.262 451.068 338.5 451.282 337.522C451.494 336.545 451.17 335.41 450.903 334.471Z" fill="#FF9A6C"/>
<path d="M447.895 339.874C447.896 339.781 448.711 340.103 449.725 339.459C450.217 339.15 450.698 338.62 450.922 337.886C451.156 337.158 451.144 336.278 450.927 335.4C450.875 335.201 450.8 334.919 450.743 334.803C450.698 334.763 450.78 334.797 450.711 334.789L450.409 334.86C449.983 334.963 449.569 335.063 449.163 335.161C448.421 335.33 447.716 335.49 447.048 335.642C445.84 335.901 445.084 336.028 445.066 335.96C445.048 335.892 445.774 335.642 446.96 335.294C447.619 335.109 448.315 334.914 449.048 334.708C449.451 334.601 449.863 334.491 450.286 334.379C450.403 334.351 450.48 334.322 450.637 334.293C450.793 334.232 451.122 334.378 451.18 334.549C451.321 334.846 451.347 335.025 451.42 335.278C451.654 336.226 451.66 337.21 451.365 338.034C451.084 338.867 450.481 339.469 449.907 339.769C449.327 340.085 448.769 340.124 448.415 340.07C448.054 340.014 447.884 339.899 447.895 339.874Z" fill="#263238"/>
<path d="M496.859 364.979C496.859 364.979 524.522 374.721 532.525 378.746C538.777 381.89 542.737 393.297 533.117 398.051C525.944 401.596 487.112 394.821 487.112 394.821L496.859 364.979Z" fill="#FFBF9D"/>
<path d="M424.613 632.739L425.384 653.17C425.384 653.17 404.875 660.815 404.65 664.605L444.319 664.533L444.424 632.649L424.613 632.739Z" fill="#455A64"/>
<path d="M437.648 651.429C438.416 651.638 438.948 652.5 438.772 653.277C438.596 654.052 437.723 654.601 436.951 654.406C436.179 654.211 435.509 653.195 435.771 652.444C436.033 651.694 437.093 651.105 437.796 651.48" fill="#E0E0E0"/>
<path d="M444.32 664.533L444.205 661.319L406.213 662.59C406.213 662.59 404.448 663.361 404.651 664.605L444.32 664.533Z" fill="#263238"/>
<path d="M424.741 652.97C424.748 653.164 425.716 653.25 426.671 653.87C427.642 654.467 428.135 655.304 428.313 655.228C428.491 655.19 428.201 654.033 427.032 653.301C425.869 652.559 424.698 652.793 424.741 652.97Z" fill="white"/>
<path d="M420.583 654.698C420.539 654.886 421.379 655.214 422.038 656.032C422.722 656.831 422.889 657.717 423.082 657.707C423.265 657.738 423.396 656.603 422.557 655.601C421.727 654.593 420.587 654.514 420.583 654.698Z" fill="white"/>
<path d="M418.229 659.683C418.406 659.723 418.673 658.756 418.174 657.696C417.682 656.632 416.768 656.215 416.686 656.377C416.577 656.536 417.166 657.105 417.563 657.981C417.98 658.847 418.037 659.664 418.229 659.683Z" fill="white"/>
<path d="M425.082 648.293C425.164 648.47 426.052 648.201 427.146 648.274C428.243 648.324 429.095 648.69 429.196 648.523C429.308 648.383 428.474 647.668 427.184 647.6C425.894 647.523 424.986 648.141 425.082 648.293Z" fill="white"/>
<path d="M472.203 634.004L473.305 658.717L468.541 678.514C468.197 679.941 469.135 681.36 470.581 681.606C471.392 681.743 472.212 681.485 472.792 680.903C476.488 677.202 489.648 663.336 489.704 662.014C489.793 659.916 490.401 635.57 490.401 635.57L472.203 634.004Z" fill="#455A64"/>
<path d="M470.58 681.605L489.797 660.045L489.82 661.093C489.75 662.162 489.541 662.883 488.968 663.586C487.438 665.466 483.099 670.564 472.867 680.903C472.271 681.504 471.411 681.769 470.58 681.605Z" fill="#263238"/>
<g opacity="0.6">
<path d="M484.548 652.178C483.938 652.62 483.756 653.562 484.172 654.189C484.589 654.817 485.544 655.011 486.163 654.579C486.78 654.148 487.034 653.024 486.55 652.448C486.065 651.87 484.931 651.704 484.434 652.272" fill="white"/>
</g>
<path d="M475.998 670.677C475.86 670.749 475.274 669.465 473.788 668.801C472.323 668.091 470.964 668.469 470.929 668.317C470.906 668.258 471.216 668.059 471.792 667.964C472.364 667.867 473.202 667.93 474.018 668.308C474.832 668.689 475.42 669.289 475.714 669.789C476.013 670.292 476.06 670.656 475.998 670.677Z" fill="white"/>
<path d="M474.31 674.027C474.194 674.136 473.383 673.35 472.095 673.011C470.815 672.644 469.717 672.905 469.674 672.752C469.599 672.627 470.779 672.077 472.24 672.487C473.705 672.882 474.436 673.958 474.31 674.027Z" fill="white"/>
<path d="M479.186 666.362C479.072 666.482 477.831 665.266 475.876 664.564C473.931 663.831 472.197 663.953 472.189 663.788C472.146 663.657 473.975 663.274 476.062 664.055C478.158 664.813 479.303 666.29 479.186 666.362Z" fill="white"/>
<path d="M479.478 658.821C479.415 658.97 478.037 658.428 476.257 658.403C474.478 658.353 473.079 658.835 473.022 658.683C472.952 658.564 474.357 657.811 476.269 657.86C478.181 657.893 479.555 658.704 479.478 658.821Z" fill="white"/>
<path d="M479.339 651.558C479.265 651.703 477.873 650.908 475.997 651.035C474.119 651.12 472.825 652.066 472.736 651.929C472.694 651.879 472.957 651.562 473.52 651.221C474.079 650.879 474.955 650.551 475.966 650.493C476.977 650.439 477.885 650.665 478.478 650.943C479.078 651.218 479.374 651.504 479.339 651.558Z" fill="white"/>
<path d="M476.012 649.653C475.981 649.654 475.918 649.323 475.958 648.718C476 648.118 476.154 647.232 476.649 646.252C476.905 645.786 477.172 645.19 477.854 644.849C478.194 644.677 478.707 644.731 479.006 645.051C479.304 645.364 479.405 645.767 479.422 646.16C479.43 647.73 478.115 649.278 476.355 649.541C474.586 649.773 472.958 648.796 472.227 647.456C472.066 647.108 471.951 646.681 472.133 646.259C472.312 645.834 472.811 645.655 473.167 645.708C473.904 645.802 474.377 646.214 474.814 646.519C475.681 647.186 476.224 647.895 476.544 648.404C476.865 648.917 476.97 649.237 476.942 649.25C476.857 649.317 476.291 648.049 474.587 646.83C474.159 646.55 473.664 646.195 473.134 646.157C472.876 646.138 472.656 646.245 472.569 646.454C472.479 646.655 472.538 646.965 472.677 647.237C473.295 648.334 474.785 649.224 476.276 649.004C477.762 648.796 478.916 647.434 478.921 646.17C478.918 645.866 478.831 645.562 478.665 645.385C478.501 645.211 478.256 645.167 478.03 645.264C477.553 645.469 477.242 645.995 476.987 646.433C475.984 648.272 476.122 649.676 476.012 649.653Z" fill="white"/>
<path d="M412.408 461.833C412.408 461.833 408.909 473.34 409.399 487.562C409.587 493.064 421.662 645.586 421.662 645.586L446.652 646.646L445.676 503.737L447.703 504.267C447.703 504.267 458.765 565.67 459.461 575.565C460.086 584.458 470.581 651.362 470.581 651.362L494.402 651.943L488.012 565.116L485.242 483.101L482.698 459.174L412.408 461.833Z" fill="#263238"/>
<path d="M450.233 489.356C450.245 489.389 449.87 489.588 449.166 489.899C448.459 490.196 447.419 490.652 446.025 490.851C445.328 490.948 444.541 490.951 443.721 490.769C442.907 490.589 442.045 490.203 441.362 489.512C440.68 488.819 440.261 487.874 440.011 486.899C439.757 485.915 439.631 484.898 439.469 483.864C438.846 479.714 438.467 475.932 438.267 473.192C438.168 471.822 438.11 470.711 438.085 469.943C438.062 469.174 438.068 468.749 438.105 468.747C438.142 468.744 438.205 469.165 438.292 469.928C438.386 470.803 438.503 471.882 438.641 473.158C438.934 475.885 439.372 479.648 439.993 483.786C440.311 485.831 440.497 487.909 441.714 489.174C442.93 490.415 444.686 490.614 445.981 490.48C447.318 490.337 448.366 489.945 449.09 489.708C449.813 489.456 450.218 489.32 450.233 489.356Z" fill="#455A64"/>
<path d="M443.53 469.694C443.523 469.671 443.698 469.57 444.05 469.564C444.4 469.553 444.924 469.681 445.43 470.073C445.915 470.462 446.418 471.145 446.401 472.048C446.403 472.963 445.652 473.831 444.709 474.126C443.774 474.447 442.654 474.191 442.115 473.452C441.568 472.734 441.57 471.884 441.73 471.285C441.906 470.67 442.253 470.256 442.541 470.059C442.829 469.856 443.029 469.834 443.038 469.857C443.103 469.928 442.316 470.247 442.095 471.371C441.997 471.901 442.053 472.613 442.496 473.144C442.919 473.688 443.769 473.878 444.544 473.623C445.32 473.37 445.894 472.714 445.913 472.025C445.955 471.335 445.58 470.727 445.187 470.358C444.343 469.582 443.52 469.791 443.53 469.694Z" fill="#455A64"/>
<path d="M482.696 481.66C482.697 481.697 482.393 481.73 481.839 481.757C481.287 481.794 480.482 481.774 479.494 481.685C477.52 481.513 474.798 480.917 472.043 479.622C469.292 478.318 467.101 476.595 465.714 475.18C465.016 474.474 464.49 473.866 464.167 473.416C463.837 472.971 463.669 472.716 463.697 472.693C463.771 472.635 464.534 473.588 465.972 474.91C467.405 476.234 469.578 477.867 472.269 479.143C474.964 480.409 477.606 481.048 479.539 481.312C481.473 481.583 482.695 481.566 482.696 481.66Z" fill="#455A64"/>
<path d="M429.234 361.133L441.762 359.122C441.762 359.122 442.426 364.26 450.926 364.43C460.718 364.626 467.577 356.419 467.577 356.419L488.905 360.716L491.347 361.713L494.892 362.852L483.872 434.423L482.604 453.955C482.604 453.955 484.703 457.116 484.703 460.507C484.703 463.897 484.842 466.158 484.842 466.158C458.746 473.327 432.848 479.535 409.02 472.595C409.02 472.595 409.614 461.072 410.993 457.933C412.372 454.793 412.116 454.505 412.116 454.505L416.025 420.308L419.778 387.041L429.234 361.133Z" fill="#2196F3"/>
<path d="M429.234 361.133C429.234 361.133 423.043 362.983 419.448 366.8C415.852 370.617 400.415 388.784 400.415 388.784L417.11 411.624L424.844 401.07L429.234 361.133Z" fill="#2196F3"/>
<path d="M414.694 429.05C417.029 410.358 419.363 391.667 421.697 372.975Z" fill="#FAFAFA"/>
<path d="M421.697 372.975C421.557 372.96 419.875 385.502 417.942 400.985C416.008 416.473 414.555 429.035 414.694 429.05C414.835 429.065 416.515 416.526 418.449 401.038C420.384 385.555 421.838 372.99 421.697 372.975Z" fill="#263238"/>
<path d="M494.891 362.852L516.955 371.898L508.81 394.686L487.112 398.124L494.891 362.852Z" fill="#2196F3"/>
<path d="M491.346 377.012C491.196 376.997 490.123 385.887 488.947 396.868C487.772 407.852 486.942 416.767 487.092 416.783C487.242 416.799 488.315 407.911 489.49 396.927C490.665 385.945 491.496 377.028 491.346 377.012Z" fill="#263238"/>
<path d="M459.381 413.137C459.747 412.493 466.935 403.705 470.508 400.297C472.815 398.097 476.292 396.58 478.472 395.778L478.479 395.636C478.479 395.636 514.457 382.783 516.955 381.514L533.117 398.051C527.491 399.615 489.29 408.812 479.866 410.881C478.218 412.804 476.559 414.381 476.559 414.381L473.82 420.816C473.82 420.816 473.504 423.159 473.701 425.671C473.898 428.183 471.861 427.204 471.861 427.204C471.861 427.204 471.957 428.765 471.825 431.014C471.824 431.036 471.822 431.06 471.821 431.082C471.687 432.764 469.269 432.972 468.755 431.365L466.898 425.563C466.898 425.563 467.142 430.842 467.24 433.781C467.258 434.314 467.165 434.753 467.001 435.113C466.29 436.671 463.971 436.38 463.577 434.714L461.403 425.535L462.106 419.914L460.282 425.05C460.282 425.05 459.778 427.796 459.879 431.653C459.92 433.196 459.4 433.852 458.761 434.084C457.691 434.473 456.561 433.621 456.468 432.486L455.773 423.981C455.771 423.982 459.015 413.781 459.381 413.137Z" fill="#FFBF9D"/>
<path d="M519.277 380.871C519.262 380.804 518.239 380.968 516.63 381.414C515.02 381.856 512.838 382.608 510.477 383.545C508.116 384.483 506.007 385.388 504.478 386.038C502.951 386.69 502.007 387.1 502.033 387.173C502.057 387.242 503.051 386.959 504.619 386.398C506.187 385.839 508.324 384.988 510.677 384.053C513.031 383.119 515.174 382.316 516.743 381.785C518.312 381.247 519.296 380.952 519.277 380.871Z" fill="#FF9A6C"/>
</g>
<defs>
<clipPath id="clip0_207_120">
<rect width="613" height="682" fill="white" transform="matrix(-1 0 0 1 613 0)"/>
</clipPath>
<clipPath id="clip1_207_120">
<rect width="488" height="578" fill="white" transform="matrix(-1 0 0 1 488 0)"/>
</clipPath>
</defs>
</svg>
