<svg width="283" height="80" viewBox="0 0 283 80" fill="none" xmlns="http://www.w3.org/2000/svg">
<rect opacity="0.2" x="21" y="15" width="254" height="57" rx="4" fill="#07599B"/>
<g filter="url(#filter0_d_223_835)">
<rect x="11" y="11" width="256" height="53.2792" rx="6.49746" fill="#2196F3"/>
<path d="M70.4302 47.0459V28.1442H77.5184C78.9704 28.1442 80.1887 28.4149 81.1732 28.9564C82.1638 29.4978 82.9114 30.2423 83.4159 31.1899C83.9266 32.1313 84.1819 33.2019 84.1819 34.4017C84.1819 35.6138 83.9266 36.6906 83.4159 37.632C82.9052 38.5734 82.1515 39.3148 81.1547 39.8562C80.1579 40.3915 78.9304 40.6592 77.4722 40.6592H72.7745V37.8442H77.0107C77.8598 37.8442 78.5551 37.6966 79.0966 37.4012C79.638 37.1059 80.038 36.6998 80.2964 36.183C80.561 35.6661 80.6933 35.0724 80.6933 34.4017C80.6933 33.731 80.561 33.1403 80.2964 32.6297C80.038 32.119 79.635 31.7221 79.0873 31.4391C78.5459 31.1499 77.8475 31.0053 76.9923 31.0053H73.8543V47.0459H70.4302ZM90.3495 28.1442V47.0459H87.0084V28.1442H90.3495ZM97.8645 47.332C96.9661 47.332 96.157 47.172 95.4371 46.8521C94.7234 46.526 94.1573 46.0461 93.7389 45.4123C93.3267 44.7786 93.1206 43.9971 93.1206 43.068C93.1206 42.2682 93.2682 41.6067 93.5636 41.0837C93.8589 40.5607 94.2619 40.1423 94.7726 39.8285C95.2833 39.5148 95.8586 39.2779 96.4985 39.1179C97.1446 38.9518 97.8122 38.8318 98.5013 38.7579C99.3319 38.6718 100.006 38.5949 100.523 38.5272C101.039 38.4534 101.415 38.3426 101.648 38.195C101.888 38.0411 102.008 37.8042 102.008 37.4843V37.4289C102.008 36.7336 101.802 36.1953 101.39 35.8138C100.978 35.4323 100.384 35.2416 99.6088 35.2416C98.7905 35.2416 98.1413 35.42 97.6614 35.7769C97.1876 36.1337 96.8677 36.5552 96.7016 37.0413L93.582 36.5983C93.8282 35.7369 94.2342 35.017 94.8003 34.4386C95.3664 33.8541 96.0586 33.4172 96.8769 33.128C97.6953 32.8327 98.5997 32.685 99.5903 32.685C100.273 32.685 100.953 32.765 101.63 32.925C102.307 33.085 102.925 33.3495 103.485 33.7187C104.045 34.0817 104.494 34.577 104.833 35.2046C105.177 35.8322 105.349 36.6167 105.349 37.5581V47.0459H102.138V45.0985H102.027C101.824 45.4923 101.538 45.8615 101.169 46.206C100.806 46.5444 100.347 46.8182 99.7934 47.0274C99.2458 47.2305 98.6028 47.332 97.8645 47.332ZM98.732 44.877C99.4027 44.877 99.9841 44.7447 100.476 44.4801C100.969 44.2094 101.347 43.8525 101.612 43.4095C101.882 42.9665 102.018 42.4835 102.018 41.9605V40.29C101.913 40.3762 101.735 40.4561 101.482 40.53C101.236 40.6038 100.959 40.6684 100.652 40.7238C100.344 40.7792 100.04 40.8284 99.738 40.8715C99.4365 40.9145 99.175 40.9515 98.9535 40.9822C98.4551 41.0499 98.009 41.1607 97.6153 41.3145C97.2215 41.4683 96.9108 41.6836 96.6831 41.9605C96.4554 42.2313 96.3416 42.582 96.3416 43.0127C96.3416 43.628 96.5662 44.0925 97.0154 44.4063C97.4645 44.7201 98.0367 44.877 98.732 44.877ZM110.278 52.362C109.823 52.362 109.401 52.3251 109.014 52.2513C108.632 52.1836 108.327 52.1036 108.1 52.0113L108.875 49.4086C109.361 49.5501 109.795 49.6178 110.176 49.6117C110.558 49.6055 110.893 49.4855 111.182 49.2517C111.478 49.0241 111.727 48.6426 111.93 48.1073L112.216 47.3412L107.075 32.8696H110.619L113.887 43.5757H114.034L117.311 32.8696H120.864L115.188 48.7626C114.923 49.5132 114.573 50.1562 114.136 50.6915C113.699 51.2329 113.164 51.6452 112.53 51.9282C111.902 52.2174 111.152 52.362 110.278 52.362ZM145.303 28.1442V47.0459H142.258L133.351 34.171H133.194V47.0459H129.77V28.1442H132.834L141.732 41.0284H141.898V28.1442H145.303ZM155.07 47.3228C153.686 47.3228 152.486 47.0182 151.471 46.4091C150.456 45.7999 149.668 44.9478 149.108 43.8525C148.554 42.7573 148.277 41.4775 148.277 40.0131C148.277 38.5487 148.554 37.2659 149.108 36.1645C149.668 35.0631 150.456 34.2079 151.471 33.5987C152.486 32.9896 153.686 32.685 155.07 32.685C156.455 32.685 157.654 32.9896 158.67 33.5987C159.685 34.2079 160.469 35.0631 161.023 36.1645C161.583 37.2659 161.863 38.5487 161.863 40.0131C161.863 41.4775 161.583 42.7573 161.023 43.8525C160.469 44.9478 159.685 45.7999 158.67 46.4091C157.654 47.0182 156.455 47.3228 155.07 47.3228ZM155.089 44.6463C155.839 44.6463 156.467 44.4401 156.972 44.0279C157.476 43.6095 157.851 43.0496 158.097 42.3482C158.35 41.6467 158.476 40.8653 158.476 40.0039C158.476 39.1363 158.35 38.3519 158.097 37.6504C157.851 36.9428 157.476 36.3798 156.972 35.9615C156.467 35.5431 155.839 35.3339 155.089 35.3339C154.32 35.3339 153.68 35.5431 153.169 35.9615C152.664 36.3798 152.286 36.9428 152.034 37.6504C151.788 38.3519 151.665 39.1363 151.665 40.0039C151.665 40.8653 151.788 41.6467 152.034 42.3482C152.286 43.0496 152.664 43.6095 153.169 44.0279C153.68 44.4401 154.32 44.6463 155.089 44.6463ZM167.218 47.0459L163.213 32.8696H166.618L169.11 42.8373H169.24L171.787 32.8696H175.156L177.703 42.7819H177.841L180.296 32.8696H183.711L179.696 47.0459H176.217L173.559 37.4658H173.365L170.707 47.0459H167.218ZM190.133 28.1442L189.828 41.4898H186.856L186.561 28.1442H190.133ZM188.342 47.2489C187.782 47.2489 187.302 47.0521 186.902 46.6583C186.509 46.2645 186.312 45.7846 186.312 45.2185C186.312 44.6647 186.509 44.191 186.902 43.7972C187.302 43.4034 187.782 43.2065 188.342 43.2065C188.89 43.2065 189.363 43.4034 189.763 43.7972C190.169 44.191 190.373 44.6647 190.373 45.2185C190.373 45.5938 190.277 45.9353 190.086 46.2429C189.902 46.5506 189.656 46.7967 189.348 46.9813C189.047 47.1597 188.711 47.2489 188.342 47.2489ZM198.153 28.1442L197.848 41.4898H194.876L194.581 28.1442H198.153ZM196.362 47.2489C195.802 47.2489 195.323 47.0521 194.923 46.6583C194.529 46.2645 194.332 45.7846 194.332 45.2185C194.332 44.6647 194.529 44.191 194.923 43.7972C195.323 43.4034 195.802 43.2065 196.362 43.2065C196.91 43.2065 197.384 43.4034 197.784 43.7972C198.19 44.191 198.393 44.6647 198.393 45.2185C198.393 45.5938 198.297 45.9353 198.107 46.2429C197.922 46.5506 197.676 46.7967 197.368 46.9813C197.067 47.1597 196.732 47.2489 196.362 47.2489ZM206.173 28.1442L205.869 41.4898H202.897L202.601 28.1442H206.173ZM204.383 47.2489C203.823 47.2489 203.343 47.0521 202.943 46.6583C202.549 46.2645 202.352 45.7846 202.352 45.2185C202.352 44.6647 202.549 44.191 202.943 43.7972C203.343 43.4034 203.823 43.2065 204.383 43.2065C204.93 43.2065 205.404 43.4034 205.804 43.7972C206.21 44.191 206.413 44.6647 206.413 45.2185C206.413 45.5938 206.318 45.9353 206.127 46.2429C205.942 46.5506 205.696 46.7967 205.389 46.9813C205.087 47.1597 204.752 47.2489 204.383 47.2489Z" fill="white"/>
</g>
<defs>
<filter id="filter0_d_223_835" x="0.604062" y="0.604062" width="281.99" height="79.2691" filterUnits="userSpaceOnUse" color-interpolation-filters="sRGB">
<feFlood flood-opacity="0" result="BackgroundImageFix"/>
<feColorMatrix in="SourceAlpha" type="matrix" values="0 0 0 0 0 0 0 0 0 0 0 0 0 0 0 0 0 0 127 0" result="hardAlpha"/>
<feOffset dx="2.59898" dy="2.59898"/>
<feGaussianBlur stdDeviation="6.49746"/>
<feComposite in2="hardAlpha" operator="out"/>
<feColorMatrix type="matrix" values="0 0 0 0 0 0 0 0 0 0 0 0 0 0 0 0 0 0 0.2 0"/>
<feBlend mode="normal" in2="BackgroundImageFix" result="effect1_dropShadow_223_835"/>
<feBlend mode="normal" in="SourceGraphic" in2="effect1_dropShadow_223_835" result="shape"/>
</filter>
</defs>
</svg>
