<svg width="294" height="85" viewBox="0 0 294 85" fill="none" xmlns="http://www.w3.org/2000/svg">
<rect opacity="0.2" x="21" y="15" width="264" height="61" rx="4" fill="#07599B"/>
<g filter="url(#filter0_d_240_102)">
<path d="M11 17.4975C11 13.909 13.909 11 17.4975 11H271.503C275.091 11 278 13.909 278 17.4975V62.6308C278 66.2192 275.091 69.1283 271.503 69.1283H17.4975C13.909 69.1283 11 66.2192 11 62.6308V17.4975Z" fill="#2196F3" shape-rendering="crispEdges"/>
<path d="M36.8076 49.564H30.4024V30.6623H36.9368C38.8134 30.6623 40.4255 31.0407 41.7729 31.7975C43.1266 32.5481 44.1664 33.628 44.8925 35.037C45.6185 36.446 45.9815 38.1319 45.9815 40.0947C45.9815 42.0636 45.6154 43.7556 44.8832 45.1708C44.1572 46.586 43.1081 47.6719 41.736 48.4288C40.3701 49.1856 38.7273 49.564 36.8076 49.564ZM33.8265 46.6013H36.6414C37.9582 46.6013 39.0564 46.3614 39.9363 45.8815C40.8162 45.3954 41.4776 44.6724 41.9206 43.7126C42.3636 42.7466 42.5851 41.5406 42.5851 40.0947C42.5851 38.6487 42.3636 37.4489 41.9206 36.4952C41.4776 35.5354 40.8223 34.8185 39.9548 34.3448C39.0934 33.8648 38.0228 33.6249 36.743 33.6249H33.8265V46.6013ZM55.2709 49.8408C53.8865 49.8408 52.6867 49.5363 51.6714 48.9271C50.6562 48.318 49.8686 47.4658 49.3087 46.3706C48.755 45.2754 48.4781 43.9956 48.4781 42.5312C48.4781 41.0668 48.755 39.7839 49.3087 38.6826C49.8686 37.5812 50.6562 36.7259 51.6714 36.1168C52.6867 35.5077 53.8865 35.2031 55.2709 35.2031C56.6553 35.2031 57.8551 35.5077 58.8703 36.1168C59.8855 36.7259 60.67 37.5812 61.2238 38.6826C61.7837 39.7839 62.0637 41.0668 62.0637 42.5312C62.0637 43.9956 61.7837 45.2754 61.2238 46.3706C60.67 47.4658 59.8855 48.318 58.8703 48.9271C57.8551 49.5363 56.6553 49.8408 55.2709 49.8408ZM55.2893 47.1643C56.04 47.1643 56.6676 46.9582 57.1721 46.546C57.6767 46.1276 58.052 45.5677 58.2981 44.8662C58.5504 44.1648 58.6765 43.3834 58.6765 42.522C58.6765 41.6544 58.5504 40.8699 58.2981 40.1685C58.052 39.4609 57.6767 38.8979 57.1721 38.4795C56.6676 38.0611 56.04 37.8519 55.2893 37.8519C54.5202 37.8519 53.8803 38.0611 53.3696 38.4795C52.8651 38.8979 52.4867 39.4609 52.2344 40.1685C51.9883 40.8699 51.8652 41.6544 51.8652 42.522C51.8652 43.3834 51.9883 44.1648 52.2344 44.8662C52.4867 45.5677 52.8651 46.1276 53.3696 46.546C53.8803 46.9582 54.5202 47.1643 55.2893 47.1643ZM67.419 49.564L63.4135 35.3877H66.8191L69.311 45.3554H69.4402L71.9875 35.3877H75.3562L77.9035 45.3H78.042L80.497 35.3877H83.9118L79.8971 49.564H76.4176L73.7596 39.9839H73.5657L70.9077 49.564H67.419ZM89.5856 41.2576V49.564H86.2446V35.3877H89.4379V37.7965H89.604C89.9301 37.0028 90.4501 36.3721 91.1638 35.9045C91.8837 35.4369 92.7728 35.2031 93.8311 35.2031C94.8094 35.2031 95.6616 35.4123 96.3876 35.8307C97.1198 36.2491 97.6859 36.8552 98.0858 37.6489C98.4919 38.4426 98.6919 39.4055 98.6857 40.5377V49.564H95.3447V41.0545C95.3447 40.107 95.0986 39.3655 94.6064 38.8302C94.1203 38.2949 93.4465 38.0273 92.5851 38.0273C92.0006 38.0273 91.4807 38.1565 91.0254 38.4149C90.5762 38.6672 90.2224 39.0333 89.964 39.5132C89.7117 39.9931 89.5856 40.5746 89.5856 41.2576ZM105.423 30.6623V49.564H102.082V30.6623H105.423ZM115.042 49.8408C113.658 49.8408 112.458 49.5363 111.443 48.9271C110.428 48.318 109.64 47.4658 109.08 46.3706C108.527 45.2754 108.25 43.9956 108.25 42.5312C108.25 41.0668 108.527 39.7839 109.08 38.6826C109.64 37.5812 110.428 36.7259 111.443 36.1168C112.458 35.5077 113.658 35.2031 115.042 35.2031C116.427 35.2031 117.627 35.5077 118.642 36.1168C119.657 36.7259 120.442 37.5812 120.995 38.6826C121.555 39.7839 121.835 41.0668 121.835 42.5312C121.835 43.9956 121.555 45.2754 120.995 46.3706C120.442 47.4658 119.657 48.318 118.642 48.9271C117.627 49.5363 116.427 49.8408 115.042 49.8408ZM115.061 47.1643C115.812 47.1643 116.439 46.9582 116.944 46.546C117.448 46.1276 117.824 45.5677 118.07 44.8662C118.322 44.1648 118.448 43.3834 118.448 42.522C118.448 41.6544 118.322 40.8699 118.07 40.1685C117.824 39.4609 117.448 38.8979 116.944 38.4795C116.439 38.0611 115.812 37.8519 115.061 37.8519C114.292 37.8519 113.652 38.0611 113.141 38.4795C112.637 38.8979 112.258 39.4609 112.006 40.1685C111.76 40.8699 111.637 41.6544 111.637 42.522C111.637 43.3834 111.76 44.1648 112.006 44.8662C112.258 45.5677 112.637 46.1276 113.141 46.546C113.652 46.9582 114.292 47.1643 115.061 47.1643ZM128.75 49.8501C127.852 49.8501 127.043 49.6901 126.323 49.3701C125.609 49.044 125.043 48.5641 124.625 47.9304C124.213 47.2966 124.006 46.5152 124.006 45.5861C124.006 44.7862 124.154 44.1248 124.449 43.6018C124.745 43.0788 125.148 42.6604 125.658 42.3466C126.169 42.0328 126.744 41.7959 127.384 41.636C128.03 41.4698 128.698 41.3498 129.387 41.276C130.218 41.1899 130.892 41.113 131.408 41.0453C131.925 40.9714 132.301 40.8607 132.534 40.713C132.774 40.5592 132.894 40.3223 132.894 40.0024V39.947C132.894 39.2517 132.688 38.7133 132.276 38.3318C131.864 37.9504 131.27 37.7596 130.495 37.7596C129.676 37.7596 129.027 37.9381 128.547 38.2949C128.074 38.6518 127.754 39.0733 127.587 39.5594L124.468 39.1163C124.714 38.2549 125.12 37.535 125.686 36.9567C126.252 36.3721 126.944 35.9353 127.763 35.6461C128.581 35.3508 129.486 35.2031 130.476 35.2031C131.159 35.2031 131.839 35.2831 132.516 35.4431C133.193 35.603 133.811 35.8676 134.371 36.2368C134.931 36.5998 135.38 37.0951 135.718 37.7227C136.063 38.3503 136.235 39.1348 136.235 40.0762V49.564H133.024V47.6166H132.913C132.71 48.0104 132.424 48.3795 132.054 48.7241C131.691 49.0625 131.233 49.3363 130.679 49.5455C130.132 49.7486 129.489 49.8501 128.75 49.8501ZM129.618 47.3951C130.289 47.3951 130.87 47.2628 131.362 46.9982C131.854 46.7275 132.233 46.3706 132.497 45.9276C132.768 45.4846 132.904 45.0016 132.904 44.4786V42.8081C132.799 42.8942 132.621 42.9742 132.368 43.048C132.122 43.1219 131.845 43.1865 131.538 43.2419C131.23 43.2972 130.925 43.3465 130.624 43.3895C130.322 43.4326 130.061 43.4695 129.839 43.5003C129.341 43.568 128.895 43.6787 128.501 43.8325C128.107 43.9864 127.797 44.2017 127.569 44.4786C127.341 44.7493 127.227 45.1 127.227 45.5307C127.227 46.146 127.452 46.6106 127.901 46.9244C128.35 47.2382 128.923 47.3951 129.618 47.3951ZM144.856 49.8132C143.742 49.8132 142.745 49.527 141.865 48.9548C140.985 48.3826 140.29 47.552 139.779 46.4629C139.269 45.3738 139.013 44.051 139.013 42.4943C139.013 40.9191 139.272 39.5901 139.789 38.5072C140.312 37.4181 141.016 36.5967 141.902 36.043C142.788 35.4831 143.776 35.2031 144.865 35.2031C145.695 35.2031 146.378 35.3446 146.914 35.6276C147.449 35.9045 147.874 36.2399 148.187 36.6336C148.501 37.0213 148.744 37.3874 148.916 37.7319H149.055V30.6623H152.405V49.564H149.119V47.3305H148.916C148.744 47.675 148.495 48.0411 148.169 48.4288C147.843 48.8102 147.412 49.1363 146.877 49.4071C146.341 49.6778 145.668 49.8132 144.856 49.8132ZM145.788 47.072C146.495 47.072 147.098 46.8813 147.597 46.4998C148.095 46.1122 148.473 45.5738 148.732 44.8847C148.99 44.1956 149.119 43.3926 149.119 42.4758C149.119 41.559 148.99 40.7622 148.732 40.0854C148.48 39.4086 148.104 38.8825 147.606 38.5072C147.114 38.1319 146.508 37.9442 145.788 37.9442C145.043 37.9442 144.422 38.138 143.923 38.5257C143.425 38.9133 143.05 39.4486 142.797 40.1316C142.545 40.8145 142.419 41.596 142.419 42.4758C142.419 43.3618 142.545 44.1525 142.797 44.8478C143.056 45.5369 143.434 46.0814 143.933 46.4814C144.437 46.8751 145.056 47.072 145.788 47.072ZM178.093 30.6623V49.564H175.047L166.141 36.689H165.984V49.564H162.56V30.6623H165.624L174.521 43.5464H174.687V30.6623H178.093ZM187.86 49.8408C186.475 49.8408 185.275 49.5363 184.26 48.9271C183.245 48.318 182.457 47.4658 181.898 46.3706C181.344 45.2754 181.067 43.9956 181.067 42.5312C181.067 41.0668 181.344 39.7839 181.898 38.6826C182.457 37.5812 183.245 36.7259 184.26 36.1168C185.275 35.5077 186.475 35.2031 187.86 35.2031C189.244 35.2031 190.444 35.5077 191.459 36.1168C192.474 36.7259 193.259 37.5812 193.813 38.6826C194.373 39.7839 194.653 41.0668 194.653 42.5312C194.653 43.9956 194.373 45.2754 193.813 46.3706C193.259 47.4658 192.474 48.318 191.459 48.9271C190.444 49.5363 189.244 49.8408 187.86 49.8408ZM187.878 47.1643C188.629 47.1643 189.256 46.9582 189.761 46.546C190.265 46.1276 190.641 45.5677 190.887 44.8662C191.139 44.1648 191.265 43.3834 191.265 42.522C191.265 41.6544 191.139 40.8699 190.887 40.1685C190.641 39.4609 190.265 38.8979 189.761 38.4795C189.256 38.0611 188.629 37.8519 187.878 37.8519C187.109 37.8519 186.469 38.0611 185.958 38.4795C185.454 38.8979 185.076 39.4609 184.823 40.1685C184.577 40.8699 184.454 41.6544 184.454 42.522C184.454 43.3834 184.577 44.1648 184.823 44.8662C185.076 45.5677 185.454 46.1276 185.958 46.546C186.469 46.9582 187.109 47.1643 187.878 47.1643ZM200.008 49.564L196.002 35.3877H199.408L201.9 45.3554H202.029L204.576 35.3877H207.945L210.492 45.3H210.631L213.086 35.3877H216.501L212.486 49.564H209.006L206.348 39.9839H206.155L203.497 49.564H200.008Z" fill="white"/>
<path d="M228.175 58.1282C227.61 57.846 227.327 57.1404 227.327 56.4348C227.327 56.2936 227.327 56.0114 227.327 55.8703C227.327 45.4269 227.327 34.9835 227.327 24.6813C227.327 24.1168 227.469 23.6935 227.61 23.129C227.751 22.8467 228.034 22.5644 228.316 22.2822C234.392 28.3506 240.326 34.419 246.261 40.4875C240.185 46.1325 234.251 52.0599 228.175 58.1282Z" fill="white"/>
<path d="M252.195 34.278C250.499 35.9715 248.662 37.665 246.967 39.4996C241.315 33.7135 235.522 27.9273 229.87 22.1411C229.87 22.1411 229.87 22 230.012 22C237.359 26.0926 244.706 30.1853 252.195 34.278Z" fill="white"/>
<path d="M229.87 58.128C235.522 52.4829 241.315 46.8379 246.967 41.1929C248.521 42.7452 250.216 44.2977 252.053 45.9911C244.706 50.0838 237.359 54.1765 230.012 58.128H229.87Z" fill="white"/>
<path d="M253.043 45.4267C251.206 43.7333 249.511 42.0397 247.674 40.3462C249.511 38.5116 251.347 36.6769 253.184 34.8423C253.749 35.1245 254.315 35.4068 254.88 35.8301C256.293 36.6769 257.847 37.3826 259.26 38.2293C259.684 38.3704 259.966 38.6527 260.249 39.076C260.814 39.7816 260.814 40.4874 260.249 41.193C259.966 41.4752 259.684 41.7575 259.26 41.8986C257.282 43.1687 255.162 44.2978 253.043 45.4267Z" fill="white"/>
</g>
<defs>
<filter id="filter0_d_240_102" x="0.604062" y="0.604062" width="292.99" height="84.1183" filterUnits="userSpaceOnUse" color-interpolation-filters="sRGB">
<feFlood flood-opacity="0" result="BackgroundImageFix"/>
<feColorMatrix in="SourceAlpha" type="matrix" values="0 0 0 0 0 0 0 0 0 0 0 0 0 0 0 0 0 0 127 0" result="hardAlpha"/>
<feOffset dx="2.59898" dy="2.59898"/>
<feGaussianBlur stdDeviation="6.49746"/>
<feComposite in2="hardAlpha" operator="out"/>
<feColorMatrix type="matrix" values="0 0 0 0 0 0 0 0 0 0 0 0 0 0 0 0 0 0 0.2 0"/>
<feBlend mode="normal" in2="BackgroundImageFix" result="effect1_dropShadow_240_102"/>
<feBlend mode="normal" in="SourceGraphic" in2="effect1_dropShadow_240_102" result="shape"/>
</filter>
</defs>
</svg>
