<svg width="636" height="131" viewBox="0 0 636 131" fill="none" xmlns="http://www.w3.org/2000/svg">
<path d="M74.0288 38.4166C73.5321 33.4083 71.4005 29.5176 67.634 26.7444C63.8674 23.9712 58.7557 22.5846 52.2987 22.5846C47.9113 22.5846 44.2069 23.2055 41.1853 24.4472C38.1638 25.6476 35.8459 27.3239 34.2317 29.4762C32.6589 31.6285 31.8724 34.0706 31.8724 36.8023C31.7897 39.0788 32.2657 41.0656 33.3004 42.7626C34.3766 44.4596 35.8459 45.929 37.7085 47.1707C39.5711 48.371 41.7234 49.4265 44.1655 50.3371C46.6075 51.2063 49.2151 51.9513 51.9883 52.5722L63.4121 55.304C68.9585 56.5457 74.0495 58.2013 78.6853 60.2708C83.321 62.3404 87.3359 64.8859 90.7299 67.9074C94.124 70.9289 96.7523 74.4885 98.6149 78.5862C100.519 82.6839 101.492 87.3817 101.533 92.6797C101.492 100.461 99.5048 107.208 95.5727 112.92C91.6819 118.59 86.0528 122.998 78.6853 126.144C71.3591 129.248 62.5222 130.8 52.1746 130.8C41.9097 130.8 32.9693 129.228 25.3534 126.082C17.7789 122.936 11.8601 118.28 7.59683 112.113C3.37498 105.904 1.16058 98.2261 0.953629 89.0787H26.9677C27.2574 93.342 28.4784 96.9016 30.6307 99.7575C32.8244 102.572 35.7425 104.704 39.3848 106.152C43.0686 107.56 47.2284 108.263 51.8641 108.263C56.4171 108.263 60.3699 107.601 63.7225 106.277C67.1166 104.952 69.7449 103.11 71.6075 100.751C73.47 98.3916 74.4013 95.6805 74.4013 92.6176C74.4013 89.7617 73.5528 87.361 71.8558 85.4156C70.2002 83.4703 67.7581 81.8147 64.5297 80.4488C61.3426 79.0829 57.4312 77.8412 52.7954 76.7236L38.9502 73.2468C28.2301 70.6392 19.7657 66.5622 13.5571 61.0159C7.34848 55.4695 4.26488 47.9985 4.30627 38.6028C4.26488 30.9042 6.31372 24.1782 10.4528 18.4249C14.6332 12.6716 20.3658 8.1807 27.6506 4.95223C34.9353 1.72376 43.2135 0.109522 52.485 0.109522C61.9221 0.109522 70.1588 1.72376 77.1952 4.95223C84.273 8.1807 89.778 12.6716 93.7101 18.4249C97.6422 24.1782 99.6703 30.8421 99.7945 38.4166H74.0288ZM180.273 88.3958V33.6359H206.722V129H181.329V111.678H180.336C178.183 117.266 174.603 121.757 169.595 125.151C164.628 128.545 158.564 130.242 151.403 130.242C145.029 130.242 139.421 128.793 134.578 125.896C129.735 122.998 125.948 118.88 123.216 113.541C120.526 108.201 119.16 101.806 119.119 94.356V33.6359H145.567V89.6375C145.609 95.2666 147.12 99.7161 150.1 102.986C153.08 106.256 157.074 107.891 162.082 107.891C165.269 107.891 168.249 107.166 171.023 105.718C173.796 104.228 176.031 102.034 177.728 99.1366C179.466 96.2393 180.315 92.659 180.273 88.3958ZM263.019 130.552C255.775 130.552 249.215 128.69 243.337 124.964C237.501 121.198 232.865 115.672 229.43 108.387C226.036 101.061 224.339 92.0795 224.339 81.4421C224.339 70.515 226.098 61.4298 229.616 54.1864C233.134 46.9017 237.812 41.4588 243.648 37.8578C249.525 34.2154 255.961 32.3942 262.956 32.3942C268.296 32.3942 272.745 33.3048 276.305 35.126C279.906 36.9058 282.803 39.1409 284.997 41.8313C287.232 44.4803 288.929 47.0879 290.088 49.6541H290.895V1.84793H317.282V129H291.206V113.727H290.088C288.846 116.376 287.087 119.004 284.811 121.612C282.576 124.178 279.658 126.31 276.057 128.007C272.497 129.704 268.151 130.552 263.019 130.552ZM271.4 109.505C275.663 109.505 279.264 108.346 282.203 106.028C285.183 103.669 287.46 100.378 289.033 96.1565C290.647 91.9347 291.454 86.9885 291.454 81.318C291.454 75.6475 290.667 70.722 289.095 66.5415C287.522 62.3611 285.245 59.1326 282.265 56.8561C279.285 54.5796 275.663 53.4414 271.4 53.4414C267.054 53.4414 263.391 54.621 260.411 56.9803C257.431 59.3395 255.175 62.6094 253.644 66.7899C252.112 70.9703 251.346 75.813 251.346 81.318C251.346 86.8643 252.112 91.7691 253.644 96.0323C255.216 100.254 257.472 103.565 260.411 105.966C263.391 108.325 267.054 109.505 271.4 109.505Z" fill="#2196F3"/>
<path d="M382.115 130.863C372.471 130.863 364.131 128.814 357.094 124.716C350.099 120.577 344.698 114.824 340.89 107.456C337.082 100.047 335.178 91.4587 335.178 81.6905C335.178 71.8395 337.082 63.2303 340.89 55.8627C344.698 48.4538 350.099 42.7005 357.094 38.6028C364.131 34.4638 372.471 32.3942 382.115 32.3942C391.759 32.3942 400.078 34.4638 407.073 38.6028C414.11 42.7005 419.532 48.4538 423.34 55.8627C427.148 63.2303 429.052 71.8395 429.052 81.6905C429.052 91.4587 427.148 100.047 423.34 107.456C419.532 114.824 414.11 120.577 407.073 124.716C400.078 128.814 391.759 130.863 382.115 130.863ZM382.239 110.374C386.626 110.374 390.29 109.132 393.228 106.649C396.167 104.124 398.381 100.689 399.871 96.3428C401.403 91.9968 402.169 87.0506 402.169 81.5042C402.169 75.9579 401.403 71.0117 399.871 66.6657C398.381 62.3197 396.167 58.8842 393.228 56.3594C390.29 53.8346 386.626 52.5722 382.239 52.5722C377.81 52.5722 374.085 53.8346 371.064 56.3594C368.083 58.8842 365.828 62.3197 364.296 66.6657C362.806 71.0117 362.061 75.9579 362.061 81.5042C362.061 87.0506 362.806 91.9968 364.296 96.3428C365.828 100.689 368.083 104.124 371.064 106.649C374.085 109.132 377.81 110.374 382.239 110.374ZM470.215 101.558L470.277 69.8321H474.126L504.673 33.6359H535.033L493.994 81.5663H487.723L470.215 101.558ZM446.25 129V1.84793H472.698V129H446.25ZM505.852 129L477.789 87.4645L495.422 68.7766L536.833 129H505.852ZM609.163 88.3958V33.6359H635.612V129H610.219V111.678H609.225C607.073 117.266 603.493 121.757 598.484 125.151C593.518 128.545 587.454 130.242 580.293 130.242C573.919 130.242 568.311 128.793 563.468 125.896C558.625 122.998 554.838 118.88 552.106 113.541C549.416 108.201 548.05 101.806 548.009 94.356V33.6359H574.457V89.6375C574.499 95.2666 576.009 99.7161 578.989 102.986C581.97 106.256 585.964 107.891 590.972 107.891C594.159 107.891 597.139 107.166 599.912 105.718C602.686 104.228 604.921 102.034 606.618 99.1366C608.356 96.2393 609.205 92.659 609.163 88.3958Z" fill="black"/>
</svg>
