<svg width="85" height="19" viewBox="0 0 85 19" fill="none" xmlns="http://www.w3.org/2000/svg">
<path d="M10.4375 5.13068C10.3466 4.32386 9.97159 3.69886 9.3125 3.25568C8.65341 2.80682 7.82386 2.58239 6.82386 2.58239C6.10795 2.58239 5.48864 2.69602 4.96591 2.92329C4.44318 3.14489 4.03693 3.4517 3.74716 3.84375C3.46307 4.23011 3.32102 4.67045 3.32102 5.16477C3.32102 5.57955 3.41761 5.9375 3.6108 6.23864C3.80966 6.53977 4.06818 6.79261 4.38636 6.99716C4.71023 7.19602 5.05682 7.36364 5.42614 7.5C5.79545 7.63068 6.15057 7.73864 6.49148 7.82386L8.19602 8.26705C8.75284 8.40341 9.32386 8.58807 9.90909 8.82102C10.4943 9.05398 11.0369 9.3608 11.5369 9.74148C12.0369 10.1222 12.4403 10.5938 12.7472 11.1562C13.0597 11.7188 13.2159 12.392 13.2159 13.1761C13.2159 14.1648 12.9602 15.0426 12.4489 15.8097C11.9432 16.5767 11.2074 17.1818 10.2415 17.625C9.28125 18.0682 8.11932 18.2898 6.75568 18.2898C5.44886 18.2898 4.31818 18.0824 3.36364 17.6676C2.40909 17.2528 1.66193 16.6648 1.12216 15.9034C0.582386 15.1364 0.284091 14.2273 0.227273 13.1761H2.86932C2.92045 13.8068 3.125 14.3324 3.48295 14.7528C3.84659 15.1676 4.30966 15.4773 4.87216 15.6818C5.44034 15.8807 6.0625 15.9801 6.73864 15.9801C7.48295 15.9801 8.14489 15.8636 8.72443 15.6307C9.30966 15.392 9.76989 15.0625 10.1051 14.642C10.4403 14.2159 10.608 13.7187 10.608 13.1506C10.608 12.6335 10.4602 12.2102 10.1648 11.8807C9.875 11.5511 9.48011 11.2784 8.98011 11.0625C8.4858 10.8466 7.92614 10.6562 7.30114 10.4915L5.23864 9.92898C3.84091 9.5483 2.73295 8.98864 1.91477 8.25C1.10227 7.51136 0.696023 6.53409 0.696023 5.31818C0.696023 4.3125 0.96875 3.43466 1.5142 2.68466C2.05966 1.93466 2.7983 1.35227 3.73011 0.9375C4.66193 0.517045 5.71307 0.306818 6.88352 0.306818C8.06534 0.306818 9.10795 0.514204 10.0114 0.928977C10.9205 1.34375 11.6364 1.91477 12.1591 2.64204C12.6818 3.36364 12.9545 4.19318 12.9773 5.13068H10.4375ZM24.451 12.571V4.90909H27.0078V18H24.5021V15.733H24.3658C24.0646 16.4318 23.5817 17.0142 22.9169 17.4801C22.2578 17.9403 21.4368 18.1705 20.4538 18.1705C19.6129 18.1705 18.8686 17.9858 18.2209 17.6165C17.5788 17.2415 17.0732 16.6875 16.7038 15.9545C16.3402 15.2216 16.1584 14.3153 16.1584 13.2358V4.90909H18.7067V12.929C18.7067 13.821 18.9538 14.5312 19.4482 15.0597C19.9425 15.5881 20.5845 15.8523 21.3743 15.8523C21.8516 15.8523 22.326 15.733 22.7976 15.4943C23.2749 15.2557 23.6697 14.8949 23.9822 14.4119C24.3004 13.929 24.4567 13.3153 24.451 12.571ZM35.3324 18.2557C34.2756 18.2557 33.3324 17.9858 32.5028 17.446C31.679 16.9006 31.0313 16.125 30.5597 15.1193C30.0938 14.108 29.8608 12.8949 29.8608 11.4801C29.8608 10.0653 30.0966 8.85511 30.5682 7.84943C31.0455 6.84375 31.6989 6.07386 32.5284 5.53977C33.358 5.00568 34.2983 4.73864 35.3494 4.73864C36.1619 4.73864 36.8153 4.875 37.3097 5.14773C37.8097 5.41477 38.196 5.72727 38.4688 6.08523C38.7472 6.44318 38.9631 6.75852 39.1165 7.03125H39.2699V0.545454H41.8182V18H39.3295V15.9631H39.1165C38.9631 16.2415 38.7415 16.5597 38.4517 16.9176C38.1676 17.2756 37.7756 17.5881 37.2756 17.8551C36.7756 18.1222 36.1278 18.2557 35.3324 18.2557ZM35.8949 16.0824C36.6278 16.0824 37.2472 15.8892 37.7528 15.5028C38.2642 15.1108 38.6506 14.5682 38.9119 13.875C39.179 13.1818 39.3125 12.375 39.3125 11.4545C39.3125 10.5455 39.1818 9.75 38.9205 9.06818C38.6591 8.38636 38.2756 7.85511 37.7699 7.47443C37.2642 7.09375 36.6392 6.90341 35.8949 6.90341C35.1278 6.90341 34.4886 7.10227 33.9773 7.5C33.4659 7.89773 33.0795 8.44034 32.8182 9.12784C32.5625 9.81534 32.4347 10.5909 32.4347 11.4545C32.4347 12.3295 32.5653 13.1165 32.8267 13.8153C33.0881 14.5142 33.4744 15.0682 33.9858 15.4773C34.5028 15.8807 35.1392 16.0824 35.8949 16.0824Z" fill="#2196F3"/>
<path d="M50.9695 18.2642C49.7422 18.2642 48.6712 17.983 47.7564 17.4205C46.8416 16.858 46.1314 16.071 45.6257 15.0597C45.12 14.0483 44.8672 12.8665 44.8672 11.5142C44.8672 10.1562 45.12 8.96875 45.6257 7.9517C46.1314 6.93466 46.8416 6.14489 47.7564 5.58239C48.6712 5.01989 49.7422 4.73864 50.9695 4.73864C52.1967 4.73864 53.2678 5.01989 54.1825 5.58239C55.0973 6.14489 55.8075 6.93466 56.3132 7.9517C56.8189 8.96875 57.0717 10.1562 57.0717 11.5142C57.0717 12.8665 56.8189 14.0483 56.3132 15.0597C55.8075 16.071 55.0973 16.858 54.1825 17.4205C53.2678 17.983 52.1967 18.2642 50.9695 18.2642ZM50.978 16.125C51.7734 16.125 52.4325 15.9148 52.9553 15.4943C53.478 15.0739 53.8643 14.5142 54.1143 13.8153C54.37 13.1165 54.4979 12.3466 54.4979 11.5057C54.4979 10.6705 54.37 9.90341 54.1143 9.20455C53.8643 8.5 53.478 7.93466 52.9553 7.50852C52.4325 7.08239 51.7734 6.86932 50.978 6.86932C50.1768 6.86932 49.5121 7.08239 48.9837 7.50852C48.4609 7.93466 48.0717 8.5 47.8161 9.20455C47.5661 9.90341 47.4411 10.6705 47.4411 11.5057C47.4411 12.3466 47.5661 13.1165 47.8161 13.8153C48.0717 14.5142 48.4609 15.0739 48.9837 15.4943C49.5121 15.9148 50.1768 16.125 50.978 16.125ZM62.2599 13.5597L62.2429 10.4489H62.6861L67.902 4.90909H70.9531L65.0043 11.2159H64.6037L62.2599 13.5597ZM59.9162 18V0.545454H62.4645V18H59.9162ZM68.1832 18L63.4957 11.7784L65.2514 9.99716L71.3111 18H68.1832ZM81.5682 12.571V4.90909H84.125V18H81.6193V15.733H81.483C81.1818 16.4318 80.6989 17.0142 80.0341 17.4801C79.375 17.9403 78.554 18.1705 77.571 18.1705C76.7301 18.1705 75.9858 17.9858 75.3381 17.6165C74.696 17.2415 74.1903 16.6875 73.821 15.9545C73.4574 15.2216 73.2756 14.3153 73.2756 13.2358V4.90909H75.8239V12.929C75.8239 13.821 76.071 14.5312 76.5653 15.0597C77.0597 15.5881 77.7017 15.8523 78.4915 15.8523C78.9688 15.8523 79.4432 15.733 79.9148 15.4943C80.392 15.2557 80.7869 14.8949 81.0994 14.4119C81.4176 13.929 81.5739 13.3153 81.5682 12.571Z" fill="black"/>
</svg>
