<svg width="294" height="85" viewBox="0 0 294 85" fill="none" xmlns="http://www.w3.org/2000/svg">
<rect opacity="0.2" x="21" y="15" width="264" height="61" rx="4" fill="#07599B"/>
<g filter="url(#filter0_d_223_3229)">
<path d="M11 17.4975C11 13.909 13.909 11 17.4975 11H271.503C275.091 11 278 13.909 278 17.4975V62.6325C278 66.221 275.091 69.13 271.503 69.13H17.4975C13.909 69.13 11 66.221 11 62.6325V17.4975Z" fill="#2196F3" shape-rendering="crispEdges"/>
<path d="M88.4607 49.1396V30.2379H95.5488C97.0009 30.2379 98.2192 30.5087 99.2036 31.0501C100.194 31.5916 100.942 32.3361 101.446 33.2836C101.957 34.225 102.212 35.2956 102.212 36.4954C102.212 37.7076 101.957 38.7843 101.446 39.7257C100.936 40.6671 100.182 41.4085 99.1852 41.95C98.1884 42.4853 96.9609 42.7529 95.5027 42.7529H90.8049V39.938H95.0412C95.8903 39.938 96.5856 39.7903 97.127 39.495C97.6685 39.1996 98.0684 38.7935 98.3268 38.2767C98.5914 37.7599 98.7237 37.1661 98.7237 36.4954C98.7237 35.8248 98.5914 35.2341 98.3268 34.7234C98.0684 34.2127 97.6654 33.8159 97.1178 33.5328C96.5763 33.2436 95.878 33.099 95.0227 33.099H91.8848V49.1396H88.4607ZM108.38 30.2379V49.1396H105.039V30.2379H108.38ZM115.895 49.4258C114.997 49.4258 114.187 49.2658 113.468 48.9458C112.754 48.6197 112.188 48.1398 111.769 47.5061C111.357 46.8723 111.151 46.0909 111.151 45.1618C111.151 44.3619 111.299 43.7005 111.594 43.1775C111.889 42.6545 112.292 42.2361 112.803 41.9223C113.314 41.6085 113.889 41.3716 114.529 41.2116C115.175 41.0455 115.843 40.9255 116.532 40.8517C117.362 40.7656 118.036 40.6886 118.553 40.621C119.07 40.5471 119.445 40.4364 119.679 40.2887C119.919 40.1349 120.039 39.898 120.039 39.578V39.5227C120.039 38.8274 119.833 38.289 119.421 37.9075C119.008 37.5261 118.415 37.3353 117.639 37.3353C116.821 37.3353 116.172 37.5137 115.692 37.8706C115.218 38.2275 114.898 38.649 114.732 39.135L111.612 38.692C111.859 37.8306 112.265 37.1107 112.831 36.5324C113.397 35.9478 114.089 35.511 114.907 35.2218C115.726 34.9265 116.63 34.7788 117.621 34.7788C118.304 34.7788 118.984 34.8588 119.66 35.0187C120.337 35.1787 120.956 35.4433 121.516 35.8125C122.075 36.1755 122.525 36.6708 122.863 37.2984C123.208 37.926 123.38 38.7105 123.38 39.6519V49.1396H120.168V47.1923H120.057C119.854 47.586 119.568 47.9552 119.199 48.2998C118.836 48.6382 118.378 48.912 117.824 49.1212C117.276 49.3242 116.633 49.4258 115.895 49.4258ZM116.762 46.9708C117.433 46.9708 118.015 46.8385 118.507 46.5739C118.999 46.3032 119.377 45.9463 119.642 45.5033C119.913 45.0603 120.048 44.5773 120.048 44.0543V42.3838C119.944 42.4699 119.765 42.5499 119.513 42.6237C119.267 42.6976 118.99 42.7622 118.682 42.8175C118.375 42.8729 118.07 42.9221 117.768 42.9652C117.467 43.0083 117.205 43.0452 116.984 43.076C116.486 43.1436 116.04 43.2544 115.646 43.4082C115.252 43.562 114.941 43.7774 114.714 44.0543C114.486 44.325 114.372 44.6757 114.372 45.1064C114.372 45.7217 114.597 46.1863 115.046 46.5001C115.495 46.8139 116.067 46.9708 116.762 46.9708ZM128.308 54.4558C127.853 54.4558 127.432 54.4188 127.044 54.345C126.662 54.2773 126.358 54.1973 126.13 54.105L126.906 51.5024C127.392 51.6439 127.825 51.7116 128.207 51.7054C128.588 51.6993 128.924 51.5793 129.213 51.3455C129.508 51.1178 129.757 50.7363 129.96 50.201L130.247 49.435L125.106 34.9634H128.65L131.917 45.6694H132.065L135.341 34.9634H138.894L133.218 50.8563C132.954 51.607 132.603 52.2499 132.166 52.7852C131.729 53.3267 131.194 53.7389 130.56 54.022C129.933 54.3112 129.182 54.4558 128.308 54.4558ZM163.334 30.2379V49.1396H160.288L151.382 36.2647H151.225V49.1396H147.801V30.2379H150.865L159.762 43.1221H159.928V30.2379H163.334ZM173.101 49.4165C171.716 49.4165 170.517 49.112 169.501 48.5028C168.486 47.8937 167.698 47.0415 167.139 45.9463C166.585 44.8511 166.308 43.5713 166.308 42.1069C166.308 40.6425 166.585 39.3596 167.139 38.2582C167.698 37.1569 168.486 36.3016 169.501 35.6925C170.517 35.0834 171.716 34.7788 173.101 34.7788C174.485 34.7788 175.685 35.0834 176.7 35.6925C177.715 36.3016 178.5 37.1569 179.054 38.2582C179.614 39.3596 179.894 40.6425 179.894 42.1069C179.894 43.5713 179.614 44.8511 179.054 45.9463C178.5 47.0415 177.715 47.8937 176.7 48.5028C175.685 49.112 174.485 49.4165 173.101 49.4165ZM173.119 46.74C173.87 46.74 174.497 46.5339 175.002 46.1217C175.507 45.7033 175.882 45.1433 176.128 44.4419C176.38 43.7405 176.506 42.9591 176.506 42.0977C176.506 41.2301 176.38 40.4456 176.128 39.7442C175.882 39.0366 175.507 38.4736 175.002 38.0552C174.497 37.6368 173.87 37.4276 173.119 37.4276C172.35 37.4276 171.71 37.6368 171.199 38.0552C170.695 38.4736 170.317 39.0366 170.064 39.7442C169.818 40.4456 169.695 41.2301 169.695 42.0977C169.695 42.9591 169.818 43.7405 170.064 44.4419C170.317 45.1433 170.695 45.7033 171.199 46.1217C171.71 46.5339 172.35 46.74 173.119 46.74ZM185.249 49.1396L181.243 34.9634H184.649L187.141 44.9311H187.27L189.817 34.9634H193.186L195.733 44.8757H195.872L198.327 34.9634H201.742L197.727 49.1396H194.247L191.589 39.5596H191.396L188.738 49.1396H185.249Z" fill="white"/>
</g>
<defs>
<filter id="filter0_d_223_3229" x="0.604062" y="0.604062" width="292.99" height="84.1197" filterUnits="userSpaceOnUse" color-interpolation-filters="sRGB">
<feFlood flood-opacity="0" result="BackgroundImageFix"/>
<feColorMatrix in="SourceAlpha" type="matrix" values="0 0 0 0 0 0 0 0 0 0 0 0 0 0 0 0 0 0 127 0" result="hardAlpha"/>
<feOffset dx="2.59898" dy="2.59898"/>
<feGaussianBlur stdDeviation="6.49746"/>
<feComposite in2="hardAlpha" operator="out"/>
<feColorMatrix type="matrix" values="0 0 0 0 0 0 0 0 0 0 0 0 0 0 0 0 0 0 0.2 0"/>
<feBlend mode="normal" in2="BackgroundImageFix" result="effect1_dropShadow_223_3229"/>
<feBlend mode="normal" in="SourceGraphic" in2="effect1_dropShadow_223_3229" result="shape"/>
</filter>
</defs>
</svg>
